G04 #@! TF.FileFunction,Legend,Bot*
%FSLAX46Y46*%
G04 Gerber Fmt 4.6, Leading zero omitted, Abs format (unit mm)*
G04 Created by KiCad (PCBNEW 4.0.4-stable) date 08/11/17 11:51:25*
%MOMM*%
%LPD*%
G01*
G04 APERTURE LIST*
%ADD10C,0.150000*%
%ADD11C,0.300000*%
%ADD12C,0.228600*%
%ADD13C,0.100000*%
%ADD14C,1.270000*%
%ADD15C,0.002540*%
G04 APERTURE END LIST*
D10*
D11*
X141832696Y-86485611D02*
X141475553Y-87485611D01*
X141118411Y-86485611D01*
X139761268Y-87485611D02*
X140618411Y-87485611D01*
X140189839Y-87485611D02*
X140189839Y-85985611D01*
X140332696Y-86199897D01*
X140475554Y-86342754D01*
X140618411Y-86414183D01*
X139118411Y-87342754D02*
X139046983Y-87414183D01*
X139118411Y-87485611D01*
X139189840Y-87414183D01*
X139118411Y-87342754D01*
X139118411Y-87485611D01*
X138118411Y-85985611D02*
X137975554Y-85985611D01*
X137832697Y-86057040D01*
X137761268Y-86128469D01*
X137689839Y-86271326D01*
X137618411Y-86557040D01*
X137618411Y-86914183D01*
X137689839Y-87199897D01*
X137761268Y-87342754D01*
X137832697Y-87414183D01*
X137975554Y-87485611D01*
X138118411Y-87485611D01*
X138261268Y-87414183D01*
X138332697Y-87342754D01*
X138404125Y-87199897D01*
X138475554Y-86914183D01*
X138475554Y-86557040D01*
X138404125Y-86271326D01*
X138332697Y-86128469D01*
X138261268Y-86057040D01*
X138118411Y-85985611D01*
D12*
X131699000Y-94107000D02*
X131318000Y-93726000D01*
X131699000Y-100330000D02*
X131699000Y-94107000D01*
X131318000Y-100711000D02*
X131699000Y-100330000D01*
D11*
X131384524Y-93532477D02*
X131324048Y-93411524D01*
X131263571Y-93351048D01*
X131142619Y-93290572D01*
X130779762Y-93290572D01*
X130658810Y-93351048D01*
X130598333Y-93411524D01*
X130537857Y-93532477D01*
X130537857Y-93713905D01*
X130598333Y-93834857D01*
X130658810Y-93895334D01*
X130779762Y-93955810D01*
X131142619Y-93955810D01*
X131263571Y-93895334D01*
X131324048Y-93834857D01*
X131384524Y-93713905D01*
X131384524Y-93532477D01*
X130537857Y-94500096D02*
X131384524Y-94500096D01*
X130658810Y-94500096D02*
X130598333Y-94560572D01*
X130537857Y-94681525D01*
X130537857Y-94862953D01*
X130598333Y-94983905D01*
X130719286Y-95044382D01*
X131384524Y-95044382D01*
X131324048Y-96132953D02*
X131384524Y-96012001D01*
X131384524Y-95770096D01*
X131324048Y-95649144D01*
X131203095Y-95588668D01*
X130719286Y-95588668D01*
X130598333Y-95649144D01*
X130537857Y-95770096D01*
X130537857Y-96012001D01*
X130598333Y-96132953D01*
X130719286Y-96193430D01*
X130840238Y-96193430D01*
X130961190Y-95588668D01*
X131384524Y-96737715D02*
X130114524Y-96737715D01*
X131021667Y-97161048D01*
X130114524Y-97584382D01*
X131384524Y-97584382D01*
X131384524Y-98189144D02*
X130537857Y-98189144D01*
X130114524Y-98189144D02*
X130175000Y-98128668D01*
X130235476Y-98189144D01*
X130175000Y-98249620D01*
X130114524Y-98189144D01*
X130235476Y-98189144D01*
X131324048Y-99338192D02*
X131384524Y-99217239D01*
X131384524Y-98975335D01*
X131324048Y-98854382D01*
X131263571Y-98793906D01*
X131142619Y-98733430D01*
X130779762Y-98733430D01*
X130658810Y-98793906D01*
X130598333Y-98854382D01*
X130537857Y-98975335D01*
X130537857Y-99217239D01*
X130598333Y-99338192D01*
X131384524Y-99882477D02*
X130537857Y-99882477D01*
X130779762Y-99882477D02*
X130658810Y-99942953D01*
X130598333Y-100003429D01*
X130537857Y-100124382D01*
X130537857Y-100245334D01*
X131384524Y-100850096D02*
X131324048Y-100729143D01*
X131263571Y-100668667D01*
X131142619Y-100608191D01*
X130779762Y-100608191D01*
X130658810Y-100668667D01*
X130598333Y-100729143D01*
X130537857Y-100850096D01*
X130537857Y-101031524D01*
X130598333Y-101152476D01*
X130658810Y-101212953D01*
X130779762Y-101273429D01*
X131142619Y-101273429D01*
X131263571Y-101212953D01*
X131324048Y-101152476D01*
X131384524Y-101031524D01*
X131384524Y-100850096D01*
D13*
X136144000Y-85090000D02*
X143256000Y-85090000D01*
X129540000Y-146685000D02*
X130810000Y-146685000D01*
X148590000Y-146685000D02*
X149225000Y-146685000D01*
X147955000Y-147320000D02*
X148590000Y-146685000D01*
X131445000Y-147320000D02*
X147955000Y-147320000D01*
X130810000Y-146685000D02*
X131445000Y-147320000D01*
D11*
X131869571Y-121210000D02*
X130369571Y-121210000D01*
X130369571Y-121781428D01*
X130441000Y-121924286D01*
X130512429Y-121995714D01*
X130655286Y-122067143D01*
X130869571Y-122067143D01*
X131012429Y-121995714D01*
X131083857Y-121924286D01*
X131155286Y-121781428D01*
X131155286Y-121210000D01*
X130369571Y-122567143D02*
X131869571Y-122924286D01*
X130798143Y-123210000D01*
X131869571Y-123495714D01*
X130369571Y-123852857D01*
X131869571Y-124424286D02*
X130369571Y-124424286D01*
X131441000Y-124924286D01*
X130369571Y-125424286D01*
X131869571Y-125424286D01*
X130369571Y-127495715D02*
X130726714Y-127495715D01*
X130583857Y-127138572D02*
X130726714Y-127495715D01*
X130583857Y-127852857D01*
X131012429Y-127281429D02*
X130726714Y-127495715D01*
X131012429Y-127710000D01*
X140735857Y-101141143D02*
X140735857Y-101641143D01*
X141521571Y-101855429D02*
X141521571Y-101141143D01*
X140021571Y-101141143D01*
X140021571Y-101855429D01*
X141521571Y-102355429D02*
X140521571Y-103141143D01*
X140521571Y-102355429D02*
X141521571Y-103141143D01*
X140521571Y-103712572D02*
X142021571Y-103712572D01*
X140593000Y-103712572D02*
X140521571Y-103855429D01*
X140521571Y-104141143D01*
X140593000Y-104284000D01*
X140664429Y-104355429D01*
X140807286Y-104426858D01*
X141235857Y-104426858D01*
X141378714Y-104355429D01*
X141450143Y-104284000D01*
X141521571Y-104141143D01*
X141521571Y-103855429D01*
X141450143Y-103712572D01*
X141521571Y-105284001D02*
X141450143Y-105141143D01*
X141307286Y-105069715D01*
X140021571Y-105069715D01*
X141521571Y-106069715D02*
X141450143Y-105926857D01*
X141378714Y-105855429D01*
X141235857Y-105784000D01*
X140807286Y-105784000D01*
X140664429Y-105855429D01*
X140593000Y-105926857D01*
X140521571Y-106069715D01*
X140521571Y-106284000D01*
X140593000Y-106426857D01*
X140664429Y-106498286D01*
X140807286Y-106569715D01*
X141235857Y-106569715D01*
X141378714Y-106498286D01*
X141450143Y-106426857D01*
X141521571Y-106284000D01*
X141521571Y-106069715D01*
X141521571Y-107212572D02*
X140521571Y-107212572D01*
X140807286Y-107212572D02*
X140664429Y-107284000D01*
X140593000Y-107355429D01*
X140521571Y-107498286D01*
X140521571Y-107641143D01*
X141450143Y-108712571D02*
X141521571Y-108569714D01*
X141521571Y-108284000D01*
X141450143Y-108141143D01*
X141307286Y-108069714D01*
X140735857Y-108069714D01*
X140593000Y-108141143D01*
X140521571Y-108284000D01*
X140521571Y-108569714D01*
X140593000Y-108712571D01*
X140735857Y-108784000D01*
X140878714Y-108784000D01*
X141021571Y-108069714D01*
X140735857Y-109426857D02*
X140735857Y-109926857D01*
X141521571Y-110141143D02*
X141521571Y-109426857D01*
X140021571Y-109426857D01*
X140021571Y-110141143D01*
X141521571Y-110784000D02*
X140521571Y-110784000D01*
X140664429Y-110784000D02*
X140593000Y-110855428D01*
X140521571Y-110998286D01*
X140521571Y-111212571D01*
X140593000Y-111355428D01*
X140735857Y-111426857D01*
X141521571Y-111426857D01*
X140735857Y-111426857D02*
X140593000Y-111498286D01*
X140521571Y-111641143D01*
X140521571Y-111855428D01*
X140593000Y-111998286D01*
X140735857Y-112069714D01*
X141521571Y-112069714D01*
X141521571Y-112784000D02*
X140021571Y-112784000D01*
X140593000Y-112784000D02*
X140521571Y-112926857D01*
X140521571Y-113212571D01*
X140593000Y-113355428D01*
X140664429Y-113426857D01*
X140807286Y-113498286D01*
X141235857Y-113498286D01*
X141378714Y-113426857D01*
X141450143Y-113355428D01*
X141521571Y-113212571D01*
X141521571Y-112926857D01*
X141450143Y-112784000D01*
X141450143Y-114712571D02*
X141521571Y-114569714D01*
X141521571Y-114284000D01*
X141450143Y-114141143D01*
X141307286Y-114069714D01*
X140735857Y-114069714D01*
X140593000Y-114141143D01*
X140521571Y-114284000D01*
X140521571Y-114569714D01*
X140593000Y-114712571D01*
X140735857Y-114784000D01*
X140878714Y-114784000D01*
X141021571Y-114069714D01*
X141521571Y-116069714D02*
X140021571Y-116069714D01*
X141450143Y-116069714D02*
X141521571Y-115926857D01*
X141521571Y-115641143D01*
X141450143Y-115498285D01*
X141378714Y-115426857D01*
X141235857Y-115355428D01*
X140807286Y-115355428D01*
X140664429Y-115426857D01*
X140593000Y-115498285D01*
X140521571Y-115641143D01*
X140521571Y-115926857D01*
X140593000Y-116069714D01*
X141521571Y-117426857D02*
X140021571Y-117426857D01*
X141450143Y-117426857D02*
X141521571Y-117284000D01*
X141521571Y-116998286D01*
X141450143Y-116855428D01*
X141378714Y-116784000D01*
X141235857Y-116712571D01*
X140807286Y-116712571D01*
X140664429Y-116784000D01*
X140593000Y-116855428D01*
X140521571Y-116998286D01*
X140521571Y-117284000D01*
X140593000Y-117426857D01*
X141450143Y-118712571D02*
X141521571Y-118569714D01*
X141521571Y-118284000D01*
X141450143Y-118141143D01*
X141307286Y-118069714D01*
X140735857Y-118069714D01*
X140593000Y-118141143D01*
X140521571Y-118284000D01*
X140521571Y-118569714D01*
X140593000Y-118712571D01*
X140735857Y-118784000D01*
X140878714Y-118784000D01*
X141021571Y-118069714D01*
X141521571Y-120069714D02*
X140021571Y-120069714D01*
X141450143Y-120069714D02*
X141521571Y-119926857D01*
X141521571Y-119641143D01*
X141450143Y-119498285D01*
X141378714Y-119426857D01*
X141235857Y-119355428D01*
X140807286Y-119355428D01*
X140664429Y-119426857D01*
X140593000Y-119498285D01*
X140521571Y-119641143D01*
X140521571Y-119926857D01*
X140593000Y-120069714D01*
X141378714Y-120784000D02*
X141450143Y-120855428D01*
X141521571Y-120784000D01*
X141450143Y-120712571D01*
X141378714Y-120784000D01*
X141521571Y-120784000D01*
X141450143Y-122141143D02*
X141521571Y-121998286D01*
X141521571Y-121712572D01*
X141450143Y-121569714D01*
X141378714Y-121498286D01*
X141235857Y-121426857D01*
X140807286Y-121426857D01*
X140664429Y-121498286D01*
X140593000Y-121569714D01*
X140521571Y-121712572D01*
X140521571Y-121998286D01*
X140593000Y-122141143D01*
X141521571Y-122998286D02*
X141450143Y-122855428D01*
X141378714Y-122784000D01*
X141235857Y-122712571D01*
X140807286Y-122712571D01*
X140664429Y-122784000D01*
X140593000Y-122855428D01*
X140521571Y-122998286D01*
X140521571Y-123212571D01*
X140593000Y-123355428D01*
X140664429Y-123426857D01*
X140807286Y-123498286D01*
X141235857Y-123498286D01*
X141378714Y-123426857D01*
X141450143Y-123355428D01*
X141521571Y-123212571D01*
X141521571Y-122998286D01*
X141521571Y-124141143D02*
X140521571Y-124141143D01*
X140664429Y-124141143D02*
X140593000Y-124212571D01*
X140521571Y-124355429D01*
X140521571Y-124569714D01*
X140593000Y-124712571D01*
X140735857Y-124784000D01*
X141521571Y-124784000D01*
X140735857Y-124784000D02*
X140593000Y-124855429D01*
X140521571Y-124998286D01*
X140521571Y-125212571D01*
X140593000Y-125355429D01*
X140735857Y-125426857D01*
X141521571Y-125426857D01*
D13*
X132080000Y-84455000D02*
X127000000Y-84455000D01*
X132715000Y-85090000D02*
X132080000Y-84455000D01*
X133985000Y-85090000D02*
X132715000Y-85090000D01*
X136144000Y-85090000D02*
X135890000Y-85090000D01*
X143510000Y-85090000D02*
X143256000Y-85090000D01*
X146050000Y-85090000D02*
X143510000Y-85090000D01*
X134620000Y-85090000D02*
X135890000Y-85090000D01*
X149225000Y-146685000D02*
X149860000Y-146685000D01*
X146685000Y-85090000D02*
X146050000Y-85090000D01*
X147320000Y-84455000D02*
X146685000Y-85090000D01*
X152400000Y-84455000D02*
X147320000Y-84455000D01*
X152400000Y-85090000D02*
X152400000Y-84455000D01*
X133985000Y-85090000D02*
X134620000Y-85090000D01*
X127000000Y-85090000D02*
X127000000Y-84455000D01*
D14*
X136143999Y-113338429D02*
X135781142Y-113701286D01*
X136143999Y-114064143D01*
X136506856Y-113701286D01*
X136143999Y-113338429D01*
X136143999Y-114064143D01*
X138556999Y-113338429D02*
X138194142Y-113701286D01*
X138556999Y-114064143D01*
X138919856Y-113701286D01*
X138556999Y-113338429D01*
X138556999Y-114064143D01*
X133476999Y-113338429D02*
X133114142Y-113701286D01*
X133476999Y-114064143D01*
X133839856Y-113701286D01*
X133476999Y-113338429D01*
X133476999Y-114064143D01*
X130936999Y-113338429D02*
X130574142Y-113701286D01*
X130936999Y-114064143D01*
X131299856Y-113701286D01*
X130936999Y-113338429D01*
X130936999Y-114064143D01*
D11*
X131727571Y-104012857D02*
X131727571Y-103155714D01*
X131727571Y-103584286D02*
X130227571Y-103584286D01*
X130441857Y-103441429D01*
X130584714Y-103298571D01*
X130656143Y-103155714D01*
X130227571Y-105298571D02*
X130227571Y-105012857D01*
X130299000Y-104870000D01*
X130370429Y-104798571D01*
X130584714Y-104655714D01*
X130870429Y-104584285D01*
X131441857Y-104584285D01*
X131584714Y-104655714D01*
X131656143Y-104727142D01*
X131727571Y-104870000D01*
X131727571Y-105155714D01*
X131656143Y-105298571D01*
X131584714Y-105370000D01*
X131441857Y-105441428D01*
X131084714Y-105441428D01*
X130941857Y-105370000D01*
X130870429Y-105298571D01*
X130799000Y-105155714D01*
X130799000Y-104870000D01*
X130870429Y-104727142D01*
X130941857Y-104655714D01*
X131084714Y-104584285D01*
X130941857Y-106584285D02*
X130941857Y-106084285D01*
X131727571Y-106084285D02*
X130227571Y-106084285D01*
X130227571Y-106798571D01*
X130870429Y-107584285D02*
X130799000Y-107441427D01*
X130727571Y-107369999D01*
X130584714Y-107298570D01*
X130513286Y-107298570D01*
X130370429Y-107369999D01*
X130299000Y-107441427D01*
X130227571Y-107584285D01*
X130227571Y-107869999D01*
X130299000Y-108012856D01*
X130370429Y-108084285D01*
X130513286Y-108155713D01*
X130584714Y-108155713D01*
X130727571Y-108084285D01*
X130799000Y-108012856D01*
X130870429Y-107869999D01*
X130870429Y-107584285D01*
X130941857Y-107441427D01*
X131013286Y-107369999D01*
X131156143Y-107298570D01*
X131441857Y-107298570D01*
X131584714Y-107369999D01*
X131656143Y-107441427D01*
X131727571Y-107584285D01*
X131727571Y-107869999D01*
X131656143Y-108012856D01*
X131584714Y-108084285D01*
X131441857Y-108155713D01*
X131156143Y-108155713D01*
X131013286Y-108084285D01*
X130941857Y-108012856D01*
X130870429Y-107869999D01*
X130227571Y-108655713D02*
X130227571Y-109655713D01*
X131727571Y-109012856D01*
X130227571Y-110084284D02*
X130227571Y-111084284D01*
X131727571Y-110441427D01*
X131299000Y-111584283D02*
X131299000Y-112298569D01*
X131727571Y-111441426D02*
X130227571Y-111941426D01*
X131727571Y-112441426D01*
X134277571Y-104012857D02*
X134277571Y-103155714D01*
X134277571Y-103584286D02*
X132777571Y-103584286D01*
X132991857Y-103441429D01*
X133134714Y-103298571D01*
X133206143Y-103155714D01*
X132777571Y-105298571D02*
X132777571Y-105012857D01*
X132849000Y-104870000D01*
X132920429Y-104798571D01*
X133134714Y-104655714D01*
X133420429Y-104584285D01*
X133991857Y-104584285D01*
X134134714Y-104655714D01*
X134206143Y-104727142D01*
X134277571Y-104870000D01*
X134277571Y-105155714D01*
X134206143Y-105298571D01*
X134134714Y-105370000D01*
X133991857Y-105441428D01*
X133634714Y-105441428D01*
X133491857Y-105370000D01*
X133420429Y-105298571D01*
X133349000Y-105155714D01*
X133349000Y-104870000D01*
X133420429Y-104727142D01*
X133491857Y-104655714D01*
X133634714Y-104584285D01*
X133491857Y-106584285D02*
X133491857Y-106084285D01*
X134277571Y-106084285D02*
X132777571Y-106084285D01*
X132777571Y-106798571D01*
X133420429Y-107584285D02*
X133349000Y-107441427D01*
X133277571Y-107369999D01*
X133134714Y-107298570D01*
X133063286Y-107298570D01*
X132920429Y-107369999D01*
X132849000Y-107441427D01*
X132777571Y-107584285D01*
X132777571Y-107869999D01*
X132849000Y-108012856D01*
X132920429Y-108084285D01*
X133063286Y-108155713D01*
X133134714Y-108155713D01*
X133277571Y-108084285D01*
X133349000Y-108012856D01*
X133420429Y-107869999D01*
X133420429Y-107584285D01*
X133491857Y-107441427D01*
X133563286Y-107369999D01*
X133706143Y-107298570D01*
X133991857Y-107298570D01*
X134134714Y-107369999D01*
X134206143Y-107441427D01*
X134277571Y-107584285D01*
X134277571Y-107869999D01*
X134206143Y-108012856D01*
X134134714Y-108084285D01*
X133991857Y-108155713D01*
X133706143Y-108155713D01*
X133563286Y-108084285D01*
X133491857Y-108012856D01*
X133420429Y-107869999D01*
X133420429Y-109012856D02*
X133349000Y-108869998D01*
X133277571Y-108798570D01*
X133134714Y-108727141D01*
X133063286Y-108727141D01*
X132920429Y-108798570D01*
X132849000Y-108869998D01*
X132777571Y-109012856D01*
X132777571Y-109298570D01*
X132849000Y-109441427D01*
X132920429Y-109512856D01*
X133063286Y-109584284D01*
X133134714Y-109584284D01*
X133277571Y-109512856D01*
X133349000Y-109441427D01*
X133420429Y-109298570D01*
X133420429Y-109012856D01*
X133491857Y-108869998D01*
X133563286Y-108798570D01*
X133706143Y-108727141D01*
X133991857Y-108727141D01*
X134134714Y-108798570D01*
X134206143Y-108869998D01*
X134277571Y-109012856D01*
X134277571Y-109298570D01*
X134206143Y-109441427D01*
X134134714Y-109512856D01*
X133991857Y-109584284D01*
X133706143Y-109584284D01*
X133563286Y-109512856D01*
X133491857Y-109441427D01*
X133420429Y-109298570D01*
X132777571Y-110084284D02*
X132777571Y-111084284D01*
X134277571Y-110441427D01*
X136827571Y-104012857D02*
X136827571Y-103155714D01*
X136827571Y-103584286D02*
X135327571Y-103584286D01*
X135541857Y-103441429D01*
X135684714Y-103298571D01*
X135756143Y-103155714D01*
X135970429Y-104870000D02*
X135899000Y-104727142D01*
X135827571Y-104655714D01*
X135684714Y-104584285D01*
X135613286Y-104584285D01*
X135470429Y-104655714D01*
X135399000Y-104727142D01*
X135327571Y-104870000D01*
X135327571Y-105155714D01*
X135399000Y-105298571D01*
X135470429Y-105370000D01*
X135613286Y-105441428D01*
X135684714Y-105441428D01*
X135827571Y-105370000D01*
X135899000Y-105298571D01*
X135970429Y-105155714D01*
X135970429Y-104870000D01*
X136041857Y-104727142D01*
X136113286Y-104655714D01*
X136256143Y-104584285D01*
X136541857Y-104584285D01*
X136684714Y-104655714D01*
X136756143Y-104727142D01*
X136827571Y-104870000D01*
X136827571Y-105155714D01*
X136756143Y-105298571D01*
X136684714Y-105370000D01*
X136541857Y-105441428D01*
X136256143Y-105441428D01*
X136113286Y-105370000D01*
X136041857Y-105298571D01*
X135970429Y-105155714D01*
X136041857Y-106584285D02*
X136041857Y-106084285D01*
X136827571Y-106084285D02*
X135327571Y-106084285D01*
X135327571Y-106798571D01*
X135827571Y-108012856D02*
X136827571Y-108012856D01*
X135256143Y-107655713D02*
X136327571Y-107298570D01*
X136327571Y-108227142D01*
X135327571Y-109512856D02*
X135327571Y-108798570D01*
X136041857Y-108727141D01*
X135970429Y-108798570D01*
X135899000Y-108941427D01*
X135899000Y-109298570D01*
X135970429Y-109441427D01*
X136041857Y-109512856D01*
X136184714Y-109584284D01*
X136541857Y-109584284D01*
X136684714Y-109512856D01*
X136756143Y-109441427D01*
X136827571Y-109298570D01*
X136827571Y-108941427D01*
X136756143Y-108798570D01*
X136684714Y-108727141D01*
X135470429Y-110155712D02*
X135399000Y-110227141D01*
X135327571Y-110369998D01*
X135327571Y-110727141D01*
X135399000Y-110869998D01*
X135470429Y-110941427D01*
X135613286Y-111012855D01*
X135756143Y-111012855D01*
X135970429Y-110941427D01*
X136827571Y-110084284D01*
X136827571Y-111012855D01*
X135327571Y-111941426D02*
X135327571Y-112084283D01*
X135399000Y-112227140D01*
X135470429Y-112298569D01*
X135613286Y-112369998D01*
X135899000Y-112441426D01*
X136256143Y-112441426D01*
X136541857Y-112369998D01*
X136684714Y-112298569D01*
X136756143Y-112227140D01*
X136827571Y-112084283D01*
X136827571Y-111941426D01*
X136756143Y-111798569D01*
X136684714Y-111727140D01*
X136541857Y-111655712D01*
X136256143Y-111584283D01*
X135899000Y-111584283D01*
X135613286Y-111655712D01*
X135470429Y-111727140D01*
X135399000Y-111798569D01*
X135327571Y-111941426D01*
X139377571Y-104012857D02*
X139377571Y-103155714D01*
X139377571Y-103584286D02*
X137877571Y-103584286D01*
X138091857Y-103441429D01*
X138234714Y-103298571D01*
X138306143Y-103155714D01*
X138520429Y-104870000D02*
X138449000Y-104727142D01*
X138377571Y-104655714D01*
X138234714Y-104584285D01*
X138163286Y-104584285D01*
X138020429Y-104655714D01*
X137949000Y-104727142D01*
X137877571Y-104870000D01*
X137877571Y-105155714D01*
X137949000Y-105298571D01*
X138020429Y-105370000D01*
X138163286Y-105441428D01*
X138234714Y-105441428D01*
X138377571Y-105370000D01*
X138449000Y-105298571D01*
X138520429Y-105155714D01*
X138520429Y-104870000D01*
X138591857Y-104727142D01*
X138663286Y-104655714D01*
X138806143Y-104584285D01*
X139091857Y-104584285D01*
X139234714Y-104655714D01*
X139306143Y-104727142D01*
X139377571Y-104870000D01*
X139377571Y-105155714D01*
X139306143Y-105298571D01*
X139234714Y-105370000D01*
X139091857Y-105441428D01*
X138806143Y-105441428D01*
X138663286Y-105370000D01*
X138591857Y-105298571D01*
X138520429Y-105155714D01*
X138591857Y-106584285D02*
X138591857Y-106084285D01*
X139377571Y-106084285D02*
X137877571Y-106084285D01*
X137877571Y-106798571D01*
X138377571Y-108012856D02*
X139377571Y-108012856D01*
X137806143Y-107655713D02*
X138877571Y-107298570D01*
X138877571Y-108227142D01*
X137877571Y-109512856D02*
X137877571Y-108798570D01*
X138591857Y-108727141D01*
X138520429Y-108798570D01*
X138449000Y-108941427D01*
X138449000Y-109298570D01*
X138520429Y-109441427D01*
X138591857Y-109512856D01*
X138734714Y-109584284D01*
X139091857Y-109584284D01*
X139234714Y-109512856D01*
X139306143Y-109441427D01*
X139377571Y-109298570D01*
X139377571Y-108941427D01*
X139306143Y-108798570D01*
X139234714Y-108727141D01*
X138520429Y-110441427D02*
X138449000Y-110298569D01*
X138377571Y-110227141D01*
X138234714Y-110155712D01*
X138163286Y-110155712D01*
X138020429Y-110227141D01*
X137949000Y-110298569D01*
X137877571Y-110441427D01*
X137877571Y-110727141D01*
X137949000Y-110869998D01*
X138020429Y-110941427D01*
X138163286Y-111012855D01*
X138234714Y-111012855D01*
X138377571Y-110941427D01*
X138449000Y-110869998D01*
X138520429Y-110727141D01*
X138520429Y-110441427D01*
X138591857Y-110298569D01*
X138663286Y-110227141D01*
X138806143Y-110155712D01*
X139091857Y-110155712D01*
X139234714Y-110227141D01*
X139306143Y-110298569D01*
X139377571Y-110441427D01*
X139377571Y-110727141D01*
X139306143Y-110869998D01*
X139234714Y-110941427D01*
X139091857Y-111012855D01*
X138806143Y-111012855D01*
X138663286Y-110941427D01*
X138591857Y-110869998D01*
X138520429Y-110727141D01*
D13*
X127000000Y-144145000D02*
X127000000Y-140335000D01*
X152400000Y-142875000D02*
X152400000Y-144145000D01*
X127000000Y-144145000D02*
G75*
G03X129540000Y-146685000I2540000J0D01*
G01*
X149860000Y-146685000D02*
G75*
G03X152400000Y-144145000I0J2540000D01*
G01*
X127000000Y-139700000D02*
X127000000Y-140335000D01*
X152400000Y-139700000D02*
X152400000Y-142875000D01*
X152400000Y-85090000D02*
X152400000Y-90170000D01*
X127000000Y-90170000D02*
X127000000Y-85090000D01*
X152400000Y-90170000D02*
X152400000Y-139700000D01*
X127000000Y-90170000D02*
X127000000Y-139700000D01*
D15*
G36*
X140652500Y-100624640D02*
X140980160Y-100617020D01*
X141213840Y-100601780D01*
X141394180Y-100566220D01*
X141559280Y-100510340D01*
X141653260Y-100467160D01*
X142153640Y-100167440D01*
X142242540Y-100083620D01*
X139491720Y-100083620D01*
X139491720Y-99755960D01*
X139494260Y-99562920D01*
X139519660Y-99468940D01*
X139585700Y-99433380D01*
X139674600Y-99428300D01*
X139837160Y-99446080D01*
X139915900Y-99514660D01*
X139933680Y-99664520D01*
X139928600Y-99781360D01*
X139908280Y-99949000D01*
X139854940Y-100030280D01*
X139738100Y-100058220D01*
X139700000Y-100063300D01*
X139491720Y-100083620D01*
X142242540Y-100083620D01*
X142252700Y-100076000D01*
X141683740Y-100076000D01*
X141460220Y-100076000D01*
X141234160Y-100076000D01*
X141104620Y-100076000D01*
X140878560Y-100076000D01*
X140652500Y-100076000D01*
X140522960Y-100076000D01*
X140299440Y-100076000D01*
X140073380Y-100076000D01*
X140073380Y-99753420D01*
X140073380Y-99428300D01*
X140299440Y-99428300D01*
X140522960Y-99428300D01*
X140522960Y-99753420D01*
X140522960Y-100076000D01*
X140652500Y-100076000D01*
X140652500Y-99753420D01*
X140652500Y-99428300D01*
X140878560Y-99428300D01*
X141104620Y-99428300D01*
X141104620Y-99753420D01*
X141104620Y-100076000D01*
X141234160Y-100076000D01*
X141234160Y-99753420D01*
X141234160Y-99428300D01*
X141460220Y-99428300D01*
X141683740Y-99428300D01*
X141683740Y-99753420D01*
X141683740Y-100076000D01*
X142252700Y-100076000D01*
X142552420Y-99794060D01*
X142839440Y-99364800D01*
X142041880Y-99364800D01*
X139428220Y-99364800D01*
X139100560Y-99364800D01*
X138772900Y-99364800D01*
X138793220Y-99156520D01*
X138813540Y-99029520D01*
X138869420Y-98963480D01*
X138993880Y-98935540D01*
X139120880Y-98925380D01*
X139428220Y-98907600D01*
X139428220Y-99136200D01*
X139428220Y-99364800D01*
X142041880Y-99364800D01*
X141861540Y-99359720D01*
X141777720Y-99326700D01*
X141749780Y-99240340D01*
X141749780Y-99138740D01*
X141754860Y-98999040D01*
X141795500Y-98935540D01*
X141909800Y-98915220D01*
X142041880Y-98915220D01*
X142219680Y-98917760D01*
X142300960Y-98950780D01*
X142328900Y-99037140D01*
X142331440Y-99138740D01*
X142323820Y-99278440D01*
X142283180Y-99344480D01*
X142168880Y-99362260D01*
X142041880Y-99364800D01*
X142839440Y-99364800D01*
X142862300Y-99334320D01*
X143040100Y-98933000D01*
X143083280Y-98785680D01*
X142041880Y-98785680D01*
X139428220Y-98785680D01*
X139105640Y-98785680D01*
X138780520Y-98785680D01*
X138780520Y-98559620D01*
X138780520Y-98333560D01*
X139105640Y-98333560D01*
X139428220Y-98333560D01*
X139428220Y-98559620D01*
X139428220Y-98785680D01*
X142041880Y-98785680D01*
X141861540Y-98778060D01*
X141777720Y-98745040D01*
X141749780Y-98658680D01*
X141749780Y-98559620D01*
X141754860Y-98419920D01*
X141795500Y-98353880D01*
X141909800Y-98333560D01*
X142041880Y-98333560D01*
X142219680Y-98338640D01*
X142300960Y-98371660D01*
X142328900Y-98458020D01*
X142331440Y-98559620D01*
X142323820Y-98696780D01*
X142283180Y-98762820D01*
X142168880Y-98783140D01*
X142041880Y-98785680D01*
X143083280Y-98785680D01*
X143113760Y-98696780D01*
X143154400Y-98485960D01*
X143164560Y-98239580D01*
X143162020Y-98188780D01*
X142041880Y-98188780D01*
X141861540Y-98183700D01*
X141820900Y-98171000D01*
X139214860Y-98171000D01*
X139105640Y-98171000D01*
X138925300Y-98165920D01*
X138836400Y-98130360D01*
X138803380Y-98041460D01*
X138793220Y-97962720D01*
X138772900Y-97754440D01*
X139105640Y-97754440D01*
X139435840Y-97754440D01*
X139412980Y-97962720D01*
X139395200Y-98092260D01*
X139341860Y-98150680D01*
X139214860Y-98171000D01*
X141820900Y-98171000D01*
X141777720Y-98155760D01*
X141749780Y-98069400D01*
X141749780Y-97972880D01*
X141754860Y-97835720D01*
X141798040Y-97772220D01*
X141912340Y-97754440D01*
X142041880Y-97754440D01*
X142219680Y-97756980D01*
X142300960Y-97790000D01*
X142328900Y-97876360D01*
X142331440Y-97967800D01*
X142323820Y-98099880D01*
X142278100Y-98163380D01*
X142163800Y-98183700D01*
X142041880Y-98188780D01*
X143162020Y-98188780D01*
X143156940Y-97957640D01*
X143134080Y-97637600D01*
X143121380Y-97576640D01*
X142171420Y-97576640D01*
X142138400Y-97574100D01*
X138861800Y-97574100D01*
X138823700Y-97530920D01*
X138795760Y-97401380D01*
X138795760Y-97386140D01*
X138772900Y-97177860D01*
X139146280Y-97160080D01*
X139519660Y-97139760D01*
X139517120Y-97106740D01*
X139202160Y-97106740D01*
X138943080Y-97106740D01*
X138910060Y-97076260D01*
X138943080Y-97043240D01*
X138973560Y-97076260D01*
X138943080Y-97106740D01*
X139202160Y-97106740D01*
X139169140Y-97076260D01*
X139202160Y-97043240D01*
X139235180Y-97076260D01*
X139202160Y-97106740D01*
X139517120Y-97106740D01*
X139499340Y-96801940D01*
X139491720Y-96603820D01*
X139509500Y-96502220D01*
X139567920Y-96466660D01*
X139674600Y-96461580D01*
X139799060Y-96471740D01*
X139860020Y-96527620D01*
X139885420Y-96664780D01*
X139890500Y-96735900D01*
X139900660Y-96946720D01*
X139885420Y-97058480D01*
X139832080Y-97101660D01*
X139778740Y-97106740D01*
X139697460Y-97134680D01*
X139692380Y-97155000D01*
X139687300Y-97304860D01*
X139606020Y-97355660D01*
X139555220Y-97345500D01*
X139453620Y-97348040D01*
X139428220Y-97436940D01*
X139402820Y-97518220D01*
X139308840Y-97551240D01*
X139169140Y-97558860D01*
X138991340Y-97561400D01*
X138877040Y-97571560D01*
X138861800Y-97574100D01*
X142138400Y-97574100D01*
X142041880Y-97569020D01*
X141861540Y-97548700D01*
X141775180Y-97505520D01*
X141749780Y-97419160D01*
X141749780Y-97358200D01*
X141757400Y-97243900D01*
X141808200Y-97190560D01*
X141935200Y-97172780D01*
X142041880Y-97172780D01*
X142219680Y-97175320D01*
X142300960Y-97208340D01*
X142328900Y-97294700D01*
X142331440Y-97381060D01*
X142323820Y-97508060D01*
X142283180Y-97566480D01*
X142171420Y-97576640D01*
X143121380Y-97576640D01*
X143093440Y-97396300D01*
X143022320Y-97175320D01*
X142991840Y-97114360D01*
X140073380Y-97114360D01*
X140073380Y-96789240D01*
X140075920Y-96596200D01*
X140101320Y-96499680D01*
X140167360Y-96466660D01*
X140258800Y-96461580D01*
X140390880Y-96479360D01*
X140459460Y-96553020D01*
X140487400Y-96705420D01*
X140484860Y-96875600D01*
X140462000Y-97017840D01*
X140383260Y-97078800D01*
X140276580Y-97094040D01*
X140073380Y-97114360D01*
X142991840Y-97114360D01*
X142976600Y-97076260D01*
X141460220Y-97076260D01*
X140878560Y-97076260D01*
X140761720Y-97066100D01*
X140700760Y-97017840D01*
X140675360Y-96893380D01*
X140665200Y-96768920D01*
X140644880Y-96461580D01*
X140878560Y-96461580D01*
X141112240Y-96461580D01*
X141091920Y-96768920D01*
X141074140Y-96954340D01*
X141038580Y-97043240D01*
X140959840Y-97071180D01*
X140878560Y-97076260D01*
X141460220Y-97076260D01*
X141340840Y-97066100D01*
X141282420Y-97017840D01*
X141254480Y-96893380D01*
X141244320Y-96768920D01*
X141226540Y-96461580D01*
X141460220Y-96461580D01*
X141691360Y-96461580D01*
X141673580Y-96768920D01*
X141655800Y-96954340D01*
X141617700Y-97043240D01*
X141538960Y-97071180D01*
X141460220Y-97076260D01*
X142976600Y-97076260D01*
X142925800Y-96964500D01*
X142803880Y-96738440D01*
X142684500Y-96550480D01*
X142593060Y-96436180D01*
X142527020Y-96365060D01*
X142511780Y-96299020D01*
X142552420Y-96205040D01*
X139860020Y-96205040D01*
X139509500Y-96161860D01*
X139176760Y-96017080D01*
X138884660Y-95770700D01*
X138775440Y-95633540D01*
X138689080Y-95483680D01*
X138640820Y-95321120D01*
X138623040Y-95100140D01*
X138620500Y-94940120D01*
X138625580Y-94686120D01*
X138648440Y-94513400D01*
X138706860Y-94378780D01*
X138808460Y-94239080D01*
X138818620Y-94226380D01*
X139039600Y-94007940D01*
X139313920Y-93830140D01*
X139593320Y-93715840D01*
X139778740Y-93687900D01*
X140040360Y-93715840D01*
X140299440Y-93784420D01*
X140502640Y-93883480D01*
X140561060Y-93929200D01*
X140642340Y-93995240D01*
X140708380Y-93969840D01*
X140782040Y-93875860D01*
X140873480Y-93774260D01*
X141038580Y-93606620D01*
X141251940Y-93398340D01*
X141495780Y-93169740D01*
X141526260Y-93141800D01*
X142153640Y-92565220D01*
X142278100Y-92720160D01*
X142405100Y-92875100D01*
X141965680Y-93299280D01*
X141724380Y-93525340D01*
X141480540Y-93753940D01*
X141267180Y-93944440D01*
X141216380Y-93987620D01*
X140909040Y-94251780D01*
X141008100Y-94482920D01*
X141097000Y-94858840D01*
X141061440Y-95242380D01*
X141005560Y-95415100D01*
X140802360Y-95752920D01*
X140528040Y-95996760D01*
X140208000Y-96149160D01*
X139860020Y-96205040D01*
X142552420Y-96205040D01*
X142554960Y-96202500D01*
X142666720Y-96037400D01*
X142681960Y-96022160D01*
X142943580Y-95549720D01*
X143108680Y-95026480D01*
X143174720Y-94482920D01*
X143136620Y-93952060D01*
X143027400Y-93558360D01*
X142768320Y-93045280D01*
X142420340Y-92613480D01*
X141996160Y-92278200D01*
X141511020Y-92041980D01*
X140982700Y-91912440D01*
X140418820Y-91899740D01*
X140124180Y-91942920D01*
X139705080Y-92054680D01*
X139346940Y-92227400D01*
X139006580Y-92481400D01*
X138877040Y-92598240D01*
X138534140Y-93004640D01*
X138282680Y-93474540D01*
X138135360Y-93982540D01*
X138084560Y-94508320D01*
X138137900Y-95029020D01*
X138292840Y-95526860D01*
X138551920Y-95976440D01*
X138633200Y-96078040D01*
X138790680Y-96266000D01*
X138633200Y-96476820D01*
X138348720Y-96941640D01*
X138168380Y-97459800D01*
X138125200Y-97680780D01*
X138089640Y-98242120D01*
X138178540Y-98783140D01*
X138374120Y-99288600D01*
X138673840Y-99740720D01*
X139072620Y-100124260D01*
X139552680Y-100421440D01*
X139555220Y-100423980D01*
X139758420Y-100515420D01*
X139928600Y-100573840D01*
X140108940Y-100606860D01*
X140335000Y-100619560D01*
X140652500Y-100624640D01*
X140652500Y-100624640D01*
X140652500Y-100624640D01*
G37*
X140652500Y-100624640D02*
X140980160Y-100617020D01*
X141213840Y-100601780D01*
X141394180Y-100566220D01*
X141559280Y-100510340D01*
X141653260Y-100467160D01*
X142153640Y-100167440D01*
X142242540Y-100083620D01*
X139491720Y-100083620D01*
X139491720Y-99755960D01*
X139494260Y-99562920D01*
X139519660Y-99468940D01*
X139585700Y-99433380D01*
X139674600Y-99428300D01*
X139837160Y-99446080D01*
X139915900Y-99514660D01*
X139933680Y-99664520D01*
X139928600Y-99781360D01*
X139908280Y-99949000D01*
X139854940Y-100030280D01*
X139738100Y-100058220D01*
X139700000Y-100063300D01*
X139491720Y-100083620D01*
X142242540Y-100083620D01*
X142252700Y-100076000D01*
X141683740Y-100076000D01*
X141460220Y-100076000D01*
X141234160Y-100076000D01*
X141104620Y-100076000D01*
X140878560Y-100076000D01*
X140652500Y-100076000D01*
X140522960Y-100076000D01*
X140299440Y-100076000D01*
X140073380Y-100076000D01*
X140073380Y-99753420D01*
X140073380Y-99428300D01*
X140299440Y-99428300D01*
X140522960Y-99428300D01*
X140522960Y-99753420D01*
X140522960Y-100076000D01*
X140652500Y-100076000D01*
X140652500Y-99753420D01*
X140652500Y-99428300D01*
X140878560Y-99428300D01*
X141104620Y-99428300D01*
X141104620Y-99753420D01*
X141104620Y-100076000D01*
X141234160Y-100076000D01*
X141234160Y-99753420D01*
X141234160Y-99428300D01*
X141460220Y-99428300D01*
X141683740Y-99428300D01*
X141683740Y-99753420D01*
X141683740Y-100076000D01*
X142252700Y-100076000D01*
X142552420Y-99794060D01*
X142839440Y-99364800D01*
X142041880Y-99364800D01*
X139428220Y-99364800D01*
X139100560Y-99364800D01*
X138772900Y-99364800D01*
X138793220Y-99156520D01*
X138813540Y-99029520D01*
X138869420Y-98963480D01*
X138993880Y-98935540D01*
X139120880Y-98925380D01*
X139428220Y-98907600D01*
X139428220Y-99136200D01*
X139428220Y-99364800D01*
X142041880Y-99364800D01*
X141861540Y-99359720D01*
X141777720Y-99326700D01*
X141749780Y-99240340D01*
X141749780Y-99138740D01*
X141754860Y-98999040D01*
X141795500Y-98935540D01*
X141909800Y-98915220D01*
X142041880Y-98915220D01*
X142219680Y-98917760D01*
X142300960Y-98950780D01*
X142328900Y-99037140D01*
X142331440Y-99138740D01*
X142323820Y-99278440D01*
X142283180Y-99344480D01*
X142168880Y-99362260D01*
X142041880Y-99364800D01*
X142839440Y-99364800D01*
X142862300Y-99334320D01*
X143040100Y-98933000D01*
X143083280Y-98785680D01*
X142041880Y-98785680D01*
X139428220Y-98785680D01*
X139105640Y-98785680D01*
X138780520Y-98785680D01*
X138780520Y-98559620D01*
X138780520Y-98333560D01*
X139105640Y-98333560D01*
X139428220Y-98333560D01*
X139428220Y-98559620D01*
X139428220Y-98785680D01*
X142041880Y-98785680D01*
X141861540Y-98778060D01*
X141777720Y-98745040D01*
X141749780Y-98658680D01*
X141749780Y-98559620D01*
X141754860Y-98419920D01*
X141795500Y-98353880D01*
X141909800Y-98333560D01*
X142041880Y-98333560D01*
X142219680Y-98338640D01*
X142300960Y-98371660D01*
X142328900Y-98458020D01*
X142331440Y-98559620D01*
X142323820Y-98696780D01*
X142283180Y-98762820D01*
X142168880Y-98783140D01*
X142041880Y-98785680D01*
X143083280Y-98785680D01*
X143113760Y-98696780D01*
X143154400Y-98485960D01*
X143164560Y-98239580D01*
X143162020Y-98188780D01*
X142041880Y-98188780D01*
X141861540Y-98183700D01*
X141820900Y-98171000D01*
X139214860Y-98171000D01*
X139105640Y-98171000D01*
X138925300Y-98165920D01*
X138836400Y-98130360D01*
X138803380Y-98041460D01*
X138793220Y-97962720D01*
X138772900Y-97754440D01*
X139105640Y-97754440D01*
X139435840Y-97754440D01*
X139412980Y-97962720D01*
X139395200Y-98092260D01*
X139341860Y-98150680D01*
X139214860Y-98171000D01*
X141820900Y-98171000D01*
X141777720Y-98155760D01*
X141749780Y-98069400D01*
X141749780Y-97972880D01*
X141754860Y-97835720D01*
X141798040Y-97772220D01*
X141912340Y-97754440D01*
X142041880Y-97754440D01*
X142219680Y-97756980D01*
X142300960Y-97790000D01*
X142328900Y-97876360D01*
X142331440Y-97967800D01*
X142323820Y-98099880D01*
X142278100Y-98163380D01*
X142163800Y-98183700D01*
X142041880Y-98188780D01*
X143162020Y-98188780D01*
X143156940Y-97957640D01*
X143134080Y-97637600D01*
X143121380Y-97576640D01*
X142171420Y-97576640D01*
X142138400Y-97574100D01*
X138861800Y-97574100D01*
X138823700Y-97530920D01*
X138795760Y-97401380D01*
X138795760Y-97386140D01*
X138772900Y-97177860D01*
X139146280Y-97160080D01*
X139519660Y-97139760D01*
X139517120Y-97106740D01*
X139202160Y-97106740D01*
X138943080Y-97106740D01*
X138910060Y-97076260D01*
X138943080Y-97043240D01*
X138973560Y-97076260D01*
X138943080Y-97106740D01*
X139202160Y-97106740D01*
X139169140Y-97076260D01*
X139202160Y-97043240D01*
X139235180Y-97076260D01*
X139202160Y-97106740D01*
X139517120Y-97106740D01*
X139499340Y-96801940D01*
X139491720Y-96603820D01*
X139509500Y-96502220D01*
X139567920Y-96466660D01*
X139674600Y-96461580D01*
X139799060Y-96471740D01*
X139860020Y-96527620D01*
X139885420Y-96664780D01*
X139890500Y-96735900D01*
X139900660Y-96946720D01*
X139885420Y-97058480D01*
X139832080Y-97101660D01*
X139778740Y-97106740D01*
X139697460Y-97134680D01*
X139692380Y-97155000D01*
X139687300Y-97304860D01*
X139606020Y-97355660D01*
X139555220Y-97345500D01*
X139453620Y-97348040D01*
X139428220Y-97436940D01*
X139402820Y-97518220D01*
X139308840Y-97551240D01*
X139169140Y-97558860D01*
X138991340Y-97561400D01*
X138877040Y-97571560D01*
X138861800Y-97574100D01*
X142138400Y-97574100D01*
X142041880Y-97569020D01*
X141861540Y-97548700D01*
X141775180Y-97505520D01*
X141749780Y-97419160D01*
X141749780Y-97358200D01*
X141757400Y-97243900D01*
X141808200Y-97190560D01*
X141935200Y-97172780D01*
X142041880Y-97172780D01*
X142219680Y-97175320D01*
X142300960Y-97208340D01*
X142328900Y-97294700D01*
X142331440Y-97381060D01*
X142323820Y-97508060D01*
X142283180Y-97566480D01*
X142171420Y-97576640D01*
X143121380Y-97576640D01*
X143093440Y-97396300D01*
X143022320Y-97175320D01*
X142991840Y-97114360D01*
X140073380Y-97114360D01*
X140073380Y-96789240D01*
X140075920Y-96596200D01*
X140101320Y-96499680D01*
X140167360Y-96466660D01*
X140258800Y-96461580D01*
X140390880Y-96479360D01*
X140459460Y-96553020D01*
X140487400Y-96705420D01*
X140484860Y-96875600D01*
X140462000Y-97017840D01*
X140383260Y-97078800D01*
X140276580Y-97094040D01*
X140073380Y-97114360D01*
X142991840Y-97114360D01*
X142976600Y-97076260D01*
X141460220Y-97076260D01*
X140878560Y-97076260D01*
X140761720Y-97066100D01*
X140700760Y-97017840D01*
X140675360Y-96893380D01*
X140665200Y-96768920D01*
X140644880Y-96461580D01*
X140878560Y-96461580D01*
X141112240Y-96461580D01*
X141091920Y-96768920D01*
X141074140Y-96954340D01*
X141038580Y-97043240D01*
X140959840Y-97071180D01*
X140878560Y-97076260D01*
X141460220Y-97076260D01*
X141340840Y-97066100D01*
X141282420Y-97017840D01*
X141254480Y-96893380D01*
X141244320Y-96768920D01*
X141226540Y-96461580D01*
X141460220Y-96461580D01*
X141691360Y-96461580D01*
X141673580Y-96768920D01*
X141655800Y-96954340D01*
X141617700Y-97043240D01*
X141538960Y-97071180D01*
X141460220Y-97076260D01*
X142976600Y-97076260D01*
X142925800Y-96964500D01*
X142803880Y-96738440D01*
X142684500Y-96550480D01*
X142593060Y-96436180D01*
X142527020Y-96365060D01*
X142511780Y-96299020D01*
X142552420Y-96205040D01*
X139860020Y-96205040D01*
X139509500Y-96161860D01*
X139176760Y-96017080D01*
X138884660Y-95770700D01*
X138775440Y-95633540D01*
X138689080Y-95483680D01*
X138640820Y-95321120D01*
X138623040Y-95100140D01*
X138620500Y-94940120D01*
X138625580Y-94686120D01*
X138648440Y-94513400D01*
X138706860Y-94378780D01*
X138808460Y-94239080D01*
X138818620Y-94226380D01*
X139039600Y-94007940D01*
X139313920Y-93830140D01*
X139593320Y-93715840D01*
X139778740Y-93687900D01*
X140040360Y-93715840D01*
X140299440Y-93784420D01*
X140502640Y-93883480D01*
X140561060Y-93929200D01*
X140642340Y-93995240D01*
X140708380Y-93969840D01*
X140782040Y-93875860D01*
X140873480Y-93774260D01*
X141038580Y-93606620D01*
X141251940Y-93398340D01*
X141495780Y-93169740D01*
X141526260Y-93141800D01*
X142153640Y-92565220D01*
X142278100Y-92720160D01*
X142405100Y-92875100D01*
X141965680Y-93299280D01*
X141724380Y-93525340D01*
X141480540Y-93753940D01*
X141267180Y-93944440D01*
X141216380Y-93987620D01*
X140909040Y-94251780D01*
X141008100Y-94482920D01*
X141097000Y-94858840D01*
X141061440Y-95242380D01*
X141005560Y-95415100D01*
X140802360Y-95752920D01*
X140528040Y-95996760D01*
X140208000Y-96149160D01*
X139860020Y-96205040D01*
X142552420Y-96205040D01*
X142554960Y-96202500D01*
X142666720Y-96037400D01*
X142681960Y-96022160D01*
X142943580Y-95549720D01*
X143108680Y-95026480D01*
X143174720Y-94482920D01*
X143136620Y-93952060D01*
X143027400Y-93558360D01*
X142768320Y-93045280D01*
X142420340Y-92613480D01*
X141996160Y-92278200D01*
X141511020Y-92041980D01*
X140982700Y-91912440D01*
X140418820Y-91899740D01*
X140124180Y-91942920D01*
X139705080Y-92054680D01*
X139346940Y-92227400D01*
X139006580Y-92481400D01*
X138877040Y-92598240D01*
X138534140Y-93004640D01*
X138282680Y-93474540D01*
X138135360Y-93982540D01*
X138084560Y-94508320D01*
X138137900Y-95029020D01*
X138292840Y-95526860D01*
X138551920Y-95976440D01*
X138633200Y-96078040D01*
X138790680Y-96266000D01*
X138633200Y-96476820D01*
X138348720Y-96941640D01*
X138168380Y-97459800D01*
X138125200Y-97680780D01*
X138089640Y-98242120D01*
X138178540Y-98783140D01*
X138374120Y-99288600D01*
X138673840Y-99740720D01*
X139072620Y-100124260D01*
X139552680Y-100421440D01*
X139555220Y-100423980D01*
X139758420Y-100515420D01*
X139928600Y-100573840D01*
X140108940Y-100606860D01*
X140335000Y-100619560D01*
X140652500Y-100624640D01*
X140652500Y-100624640D01*
G36*
X139712700Y-95803720D02*
X140007340Y-95785940D01*
X140284200Y-95679260D01*
X140512800Y-95496380D01*
X140665200Y-95252540D01*
X140716000Y-94978220D01*
X140688060Y-94810580D01*
X140616940Y-94617540D01*
X140604240Y-94597220D01*
X140406120Y-94333060D01*
X140154660Y-94167960D01*
X139870180Y-94101920D01*
X139580620Y-94134940D01*
X139313920Y-94272100D01*
X139095480Y-94508320D01*
X139077700Y-94536260D01*
X138983720Y-94810580D01*
X138993880Y-95105220D01*
X139095480Y-95387160D01*
X139278360Y-95618300D01*
X139420600Y-95717360D01*
X139712700Y-95803720D01*
X139712700Y-95803720D01*
X139712700Y-95803720D01*
G37*
X139712700Y-95803720D02*
X140007340Y-95785940D01*
X140284200Y-95679260D01*
X140512800Y-95496380D01*
X140665200Y-95252540D01*
X140716000Y-94978220D01*
X140688060Y-94810580D01*
X140616940Y-94617540D01*
X140604240Y-94597220D01*
X140406120Y-94333060D01*
X140154660Y-94167960D01*
X139870180Y-94101920D01*
X139580620Y-94134940D01*
X139313920Y-94272100D01*
X139095480Y-94508320D01*
X139077700Y-94536260D01*
X138983720Y-94810580D01*
X138993880Y-95105220D01*
X139095480Y-95387160D01*
X139278360Y-95618300D01*
X139420600Y-95717360D01*
X139712700Y-95803720D01*
X139712700Y-95803720D01*
M02*
