G04 #@! TF.FileFunction,Copper,L2,Bot,Signal*
%FSLAX46Y46*%
G04 Gerber Fmt 4.6, Leading zero omitted, Abs format (unit mm)*
G04 Created by KiCad (PCBNEW 4.0.4-stable) date 08/11/17 11:51:25*
%MOMM*%
%LPD*%
G01*
G04 APERTURE LIST*
%ADD10C,0.150000*%
%ADD11C,0.100000*%
%ADD12O,1.800000X2.000000*%
%ADD13O,2.000000X1.800000*%
%ADD14C,3.000000*%
%ADD15C,1.500000*%
%ADD16O,2.200000X2.500000*%
%ADD17C,1.397000*%
%ADD18C,0.760000*%
%ADD19C,0.508000*%
%ADD20C,0.635000*%
%ADD21C,0.381000*%
%ADD22C,0.304800*%
%ADD23C,0.457200*%
%ADD24C,0.254000*%
G04 APERTURE END LIST*
D10*
D11*
X136144000Y-85090000D02*
X143256000Y-85090000D01*
X129540000Y-146685000D02*
X130810000Y-146685000D01*
X148590000Y-146685000D02*
X149225000Y-146685000D01*
X147955000Y-147320000D02*
X148590000Y-146685000D01*
X131445000Y-147320000D02*
X147955000Y-147320000D01*
X130810000Y-146685000D02*
X131445000Y-147320000D01*
X132080000Y-84455000D02*
X127000000Y-84455000D01*
X132715000Y-85090000D02*
X132080000Y-84455000D01*
X133985000Y-85090000D02*
X132715000Y-85090000D01*
X136144000Y-85090000D02*
X135890000Y-85090000D01*
X143510000Y-85090000D02*
X143256000Y-85090000D01*
X146050000Y-85090000D02*
X143510000Y-85090000D01*
X134620000Y-85090000D02*
X135890000Y-85090000D01*
X149225000Y-146685000D02*
X149860000Y-146685000D01*
X146685000Y-85090000D02*
X146050000Y-85090000D01*
X147320000Y-84455000D02*
X146685000Y-85090000D01*
X152400000Y-84455000D02*
X147320000Y-84455000D01*
X152400000Y-85090000D02*
X152400000Y-84455000D01*
X133985000Y-85090000D02*
X134620000Y-85090000D01*
X127000000Y-85090000D02*
X127000000Y-84455000D01*
X127000000Y-144145000D02*
X127000000Y-140335000D01*
X152400000Y-142875000D02*
X152400000Y-144145000D01*
X127000000Y-144145000D02*
G75*
G03X129540000Y-146685000I2540000J0D01*
G01*
X149860000Y-146685000D02*
G75*
G03X152400000Y-144145000I0J2540000D01*
G01*
X127000000Y-139700000D02*
X127000000Y-140335000D01*
X152400000Y-139700000D02*
X152400000Y-142875000D01*
X152400000Y-85090000D02*
X152400000Y-90170000D01*
X127000000Y-90170000D02*
X127000000Y-85090000D01*
X152400000Y-90170000D02*
X152400000Y-139700000D01*
X127000000Y-90170000D02*
X127000000Y-139700000D01*
D12*
X142875000Y-140970000D03*
X140335000Y-140970000D03*
X137795000Y-140970000D03*
X135255000Y-140970000D03*
X132715000Y-140970000D03*
X130175000Y-140970000D03*
X146050000Y-140970000D03*
X148590000Y-140970000D03*
D13*
X151130000Y-115570000D03*
X151130000Y-118110000D03*
X151130000Y-120650000D03*
X151130000Y-123190000D03*
X151130000Y-125730000D03*
X151130000Y-128270000D03*
X151130000Y-130810000D03*
X151130000Y-133350000D03*
X151130000Y-135890000D03*
X151130000Y-138430000D03*
X128270000Y-138430000D03*
X128270000Y-135890000D03*
X128270000Y-133350000D03*
X128270000Y-130810000D03*
X128270000Y-128270000D03*
X128270000Y-125730000D03*
X128270000Y-123190000D03*
X128270000Y-120650000D03*
X128270000Y-118110000D03*
X128270000Y-115570000D03*
X151130000Y-90170000D03*
X151130000Y-92710000D03*
X151130000Y-95250000D03*
X151130000Y-97790000D03*
X151130000Y-100330000D03*
X151130000Y-102870000D03*
X151130000Y-105410000D03*
X151130000Y-107950000D03*
X151130000Y-110490000D03*
X151130000Y-113030000D03*
X128270000Y-113030000D03*
X128270000Y-110490000D03*
X128270000Y-107950000D03*
X128270000Y-105410000D03*
X128270000Y-102870000D03*
X128270000Y-100330000D03*
X128270000Y-97790000D03*
X128270000Y-95250000D03*
X128270000Y-92710000D03*
X128270000Y-90170000D03*
D14*
X150495000Y-86995000D03*
X128905000Y-86995000D03*
X150495000Y-144780000D03*
X128905000Y-144780000D03*
D15*
X142125000Y-89281000D03*
D16*
X143325000Y-86631000D03*
D15*
X137275000Y-89281000D03*
D16*
X136075000Y-86631000D03*
D17*
X142240000Y-134620000D03*
X137160000Y-134620000D03*
D15*
X137160000Y-124460000D03*
X142060000Y-124460000D03*
D18*
X142900400Y-109575600D03*
X149352000Y-111861600D03*
X148945600Y-100736400D03*
X148742400Y-94640400D03*
X144932400Y-95148400D03*
X136448800Y-94640400D03*
X143560800Y-93116400D03*
X143205200Y-136550400D03*
X137972800Y-111658400D03*
X133756400Y-129641600D03*
X132842000Y-137566400D03*
X136753600Y-137058400D03*
X137718800Y-127355600D03*
X140817600Y-105003600D03*
X138684000Y-110642400D03*
X138226800Y-129082800D03*
X139903200Y-104495600D03*
X138910000Y-136150000D03*
X136180000Y-135900000D03*
X131430000Y-138760000D03*
X131080000Y-129990000D03*
X136702800Y-111353600D03*
X135229600Y-99466400D03*
X136804400Y-101650800D03*
X145389600Y-100685600D03*
X145034000Y-130302000D03*
X129997200Y-117602000D03*
X130048000Y-113030000D03*
X130098800Y-129743200D03*
X145034000Y-102108000D03*
X142748000Y-130149600D03*
X137414000Y-92964000D03*
X131419600Y-116078000D03*
X142341600Y-94132400D03*
X134975600Y-97637600D03*
X131876800Y-124409200D03*
X132689600Y-135940800D03*
X132181600Y-129794000D03*
X145643600Y-106121200D03*
X145542000Y-108000800D03*
X142341600Y-111455200D03*
X146862800Y-103428800D03*
X145643600Y-122174000D03*
X145491200Y-126644400D03*
X141986000Y-116332000D03*
X133654800Y-126339600D03*
X137414000Y-116840000D03*
X141986000Y-129235200D03*
X135890000Y-112014000D03*
X143560800Y-112014000D03*
X143713200Y-114350800D03*
X140411200Y-93167200D03*
X138988800Y-93421200D03*
X148590000Y-95859600D03*
X148590000Y-99466400D03*
X144119600Y-97078800D03*
X142595600Y-114249200D03*
X141935200Y-127914400D03*
X141782800Y-113588800D03*
X138176000Y-115874800D03*
X138074400Y-113893600D03*
D19*
X149352000Y-111861600D02*
X149352000Y-111556800D01*
D20*
X147370800Y-109575600D02*
X142900400Y-109575600D01*
X149352000Y-111556800D02*
X147370800Y-109575600D01*
X149098000Y-101803200D02*
X149098000Y-111607600D01*
D19*
X149098000Y-111607600D02*
X149352000Y-111861600D01*
D20*
X149098000Y-100888800D02*
X149098000Y-101803200D01*
D19*
X149098000Y-101803200D02*
X149098000Y-101904800D01*
X148945600Y-100736400D02*
X149098000Y-100888800D01*
X145440400Y-94640400D02*
X148742400Y-94640400D01*
X144932400Y-95148400D02*
X145440400Y-94640400D01*
D20*
X143560800Y-93116400D02*
X142138400Y-93116400D01*
X140614400Y-94640400D02*
X136448800Y-94640400D01*
D19*
X142138400Y-93116400D02*
X140614400Y-94640400D01*
D20*
X148793200Y-90170000D02*
X151130000Y-90170000D01*
X143560800Y-93116400D02*
X144018000Y-92659200D01*
X144018000Y-92659200D02*
X146304000Y-92659200D01*
X146304000Y-92659200D02*
X148793200Y-90170000D01*
D19*
X140335000Y-139420600D02*
X140335000Y-140970000D01*
X143205200Y-136550400D02*
X140335000Y-139420600D01*
D20*
X135991600Y-114554000D02*
X137160000Y-113385600D01*
X135991600Y-117144800D02*
X135991600Y-114554000D01*
X132740400Y-120396000D02*
X135991600Y-117144800D01*
D19*
X132740400Y-128625600D02*
X132740400Y-120396000D01*
X133756400Y-129641600D02*
X132740400Y-128625600D01*
X136245600Y-137566400D02*
X132842000Y-137566400D01*
X136753600Y-137058400D02*
X136245600Y-137566400D01*
D20*
X137972800Y-112572800D02*
X137160000Y-113385600D01*
X137972800Y-111658400D02*
X137972800Y-112572800D01*
D21*
X138988800Y-112420400D02*
X138988800Y-112268000D01*
X138988800Y-116586000D02*
X138988800Y-112420400D01*
X138480800Y-126593600D02*
X137718800Y-127355600D01*
X138480800Y-118668800D02*
X138480800Y-126593600D01*
X138988800Y-118160800D02*
X138480800Y-118668800D01*
X138988800Y-118160800D02*
X138988800Y-116586000D01*
X138988800Y-116586000D02*
X138988800Y-116382800D01*
X147116800Y-99771200D02*
X149098000Y-97790000D01*
X144221200Y-104952800D02*
X147116800Y-102057200D01*
X140868400Y-104952800D02*
X144221200Y-104952800D01*
X140817600Y-105003600D02*
X140868400Y-104952800D01*
X147116800Y-102057200D02*
X147116800Y-99771200D01*
X149098000Y-97790000D02*
X151130000Y-97790000D01*
X138988800Y-110947200D02*
X138684000Y-110642400D01*
X138988800Y-112420400D02*
X138988800Y-110947200D01*
X139903200Y-121310400D02*
X139903200Y-121208800D01*
X140271498Y-106946698D02*
X139903200Y-106578400D01*
X140271498Y-120840502D02*
X140271498Y-106946698D01*
X139903200Y-121208800D02*
X140271498Y-120840502D01*
X139903200Y-126593600D02*
X139903200Y-127406400D01*
X139903200Y-127406400D02*
X138226800Y-129082800D01*
X139903200Y-126593600D02*
X139903200Y-121310400D01*
X139903200Y-106578400D02*
X139903200Y-104495600D01*
X151130000Y-95250000D02*
X150571200Y-95250000D01*
X150571200Y-95250000D02*
X146405600Y-99415600D01*
X146405600Y-101854000D02*
X146405600Y-99415600D01*
X144170400Y-104089200D02*
X146405600Y-101854000D01*
X140309600Y-104089200D02*
X144170400Y-104089200D01*
X139903200Y-104495600D02*
X140309600Y-104089200D01*
X130403600Y-115976400D02*
X130403600Y-116503600D01*
X141080000Y-135780000D02*
X142240000Y-134620000D01*
X139280000Y-135780000D02*
X141080000Y-135780000D01*
X138910000Y-136150000D02*
X139280000Y-135780000D01*
X135340000Y-136740000D02*
X136180000Y-135900000D01*
X132030000Y-136740000D02*
X135340000Y-136740000D01*
X131600000Y-137170000D02*
X132030000Y-136740000D01*
X131600000Y-138590000D02*
X131600000Y-137170000D01*
X131430000Y-138760000D02*
X131600000Y-138590000D01*
X130950000Y-129860000D02*
X131080000Y-129990000D01*
X130950000Y-117050000D02*
X130950000Y-129860000D01*
X130403600Y-116503600D02*
X130950000Y-117050000D01*
D19*
X142875000Y-140970000D02*
X142875000Y-139877800D01*
X142875000Y-139877800D02*
X144881600Y-137871200D01*
X144881600Y-137871200D02*
X144881600Y-135432800D01*
X144881600Y-135432800D02*
X144068800Y-134620000D01*
X144068800Y-134620000D02*
X142240000Y-134620000D01*
X142875000Y-140970000D02*
X142875000Y-142570200D01*
X148590000Y-142494000D02*
X148590000Y-140970000D01*
X147523200Y-143560800D02*
X148590000Y-142494000D01*
X143865600Y-143560800D02*
X147523200Y-143560800D01*
X142875000Y-142570200D02*
X143865600Y-143560800D01*
D21*
X134366000Y-113284000D02*
X135940800Y-113284000D01*
X136702800Y-112522000D02*
X136702800Y-111353600D01*
X135940800Y-113284000D02*
X136702800Y-112522000D01*
X130403600Y-115976400D02*
X128270000Y-118110000D01*
X130403600Y-114960400D02*
X130403600Y-115976400D01*
X132080000Y-113284000D02*
X130403600Y-114960400D01*
X134366000Y-113284000D02*
X132080000Y-113284000D01*
X139598400Y-111506000D02*
X139598400Y-108966000D01*
X134416800Y-98653600D02*
X134196000Y-98653600D01*
X135229600Y-99466400D02*
X134416800Y-98653600D01*
X136804400Y-106172000D02*
X136804400Y-101650800D01*
X139598400Y-108966000D02*
X136804400Y-106172000D01*
X139598400Y-112369600D02*
X139598400Y-111506000D01*
X139141200Y-120396000D02*
X139141200Y-119837200D01*
X139598400Y-119380000D02*
X139598400Y-112369600D01*
X139598400Y-112369600D02*
X139598400Y-112217200D01*
X139141200Y-119837200D02*
X139598400Y-119380000D01*
X142900400Y-126796800D02*
X141935200Y-126796800D01*
X139141200Y-127050800D02*
X139141200Y-120396000D01*
X139141200Y-120396000D02*
X139141200Y-120243600D01*
X137007600Y-129184400D02*
X139141200Y-127050800D01*
X137007600Y-129844800D02*
X137007600Y-129184400D01*
X137363200Y-130200400D02*
X137007600Y-129844800D01*
X138531600Y-130200400D02*
X137363200Y-130200400D01*
X141935200Y-126796800D02*
X138531600Y-130200400D01*
X145034000Y-130302000D02*
X145034000Y-128930400D01*
X145034000Y-128930400D02*
X142900400Y-126796800D01*
X143357600Y-98653600D02*
X134196000Y-98653600D01*
X145389600Y-100685600D02*
X143357600Y-98653600D01*
X131521200Y-95978800D02*
X131521200Y-91592400D01*
X131521200Y-91592400D02*
X130098800Y-90170000D01*
X130098800Y-90170000D02*
X128270000Y-90170000D01*
X134196000Y-98653600D02*
X131521200Y-95978800D01*
X128574800Y-138430000D02*
X128270000Y-138430000D01*
X141122400Y-132892800D02*
X134112000Y-132892800D01*
X134112000Y-132892800D02*
X128574800Y-138430000D01*
X143713200Y-130302000D02*
X141122400Y-132892800D01*
X145034000Y-130302000D02*
X143713200Y-130302000D01*
X145034000Y-102108000D02*
X143662400Y-102108000D01*
X141833600Y-100279200D02*
X134467600Y-100279200D01*
X143662400Y-102108000D02*
X141833600Y-100279200D01*
X134467600Y-100279200D02*
X133604000Y-99415600D01*
X140665200Y-132232400D02*
X133096000Y-132232400D01*
X129946400Y-94386400D02*
X129946400Y-95758000D01*
X129946400Y-95758000D02*
X131013200Y-96824800D01*
X129946400Y-119684800D02*
X129946400Y-117652800D01*
X129946400Y-117652800D02*
X129997200Y-117602000D01*
X130048000Y-113030000D02*
X129946400Y-112928400D01*
X129946400Y-112928400D02*
X129946400Y-95859600D01*
X129946400Y-94386400D02*
X129692400Y-94132400D01*
X129946400Y-95859600D02*
X129946400Y-94386400D01*
X129946400Y-129590800D02*
X129946400Y-119684800D01*
X129946400Y-119684800D02*
X129946400Y-119634000D01*
X130098800Y-129743200D02*
X129946400Y-129590800D01*
X133604000Y-99415600D02*
X131013200Y-96824800D01*
X129692400Y-94132400D02*
X128270000Y-92710000D01*
X142748000Y-130149600D02*
X140665200Y-132232400D01*
X133096000Y-132232400D02*
X129438400Y-135890000D01*
X129438400Y-135890000D02*
X128270000Y-135890000D01*
D20*
X134315200Y-96977200D02*
X134975600Y-97637600D01*
X134315200Y-96977200D02*
X134315200Y-94742000D01*
X134315200Y-94742000D02*
X136093200Y-92964000D01*
X136093200Y-92964000D02*
X137414000Y-92964000D01*
X151130000Y-92710000D02*
X149009090Y-92710000D01*
X147942290Y-93776800D02*
X144678400Y-93776800D01*
X149009090Y-92710000D02*
X147942290Y-93776800D01*
X131876800Y-119126000D02*
X131876800Y-116535200D01*
X131876800Y-116535200D02*
X131419600Y-116078000D01*
D19*
X134975600Y-97637600D02*
X135737600Y-97637600D01*
X142341600Y-94996000D02*
X142341600Y-94132400D01*
X141630400Y-95707200D02*
X142341600Y-94996000D01*
X137668000Y-95707200D02*
X141630400Y-95707200D01*
X135737600Y-97637600D02*
X137668000Y-95707200D01*
D20*
X131876800Y-124409200D02*
X131876800Y-119126000D01*
D19*
X131876800Y-119126000D02*
X131876800Y-119075200D01*
D20*
X142341600Y-94132400D02*
X144322800Y-94132400D01*
X144322800Y-94132400D02*
X144678400Y-93776800D01*
X132181600Y-129794000D02*
X131876800Y-129489200D01*
X131876800Y-129489200D02*
X131876800Y-124409200D01*
X137160000Y-134620000D02*
X134010400Y-134620000D01*
X134010400Y-134620000D02*
X132689600Y-135940800D01*
X137795000Y-140970000D02*
X137795000Y-135255000D01*
X137795000Y-135255000D02*
X137160000Y-134620000D01*
X145897600Y-105867200D02*
X145643600Y-106121200D01*
D19*
X145542000Y-108000800D02*
X145491200Y-108051600D01*
D20*
X145491200Y-108051600D02*
X142798800Y-108051600D01*
X142798800Y-108051600D02*
X141630400Y-109220000D01*
X141630400Y-109220000D02*
X141630400Y-110744000D01*
D19*
X141630400Y-110744000D02*
X142341600Y-111455200D01*
D20*
X145897600Y-104394000D02*
X145897600Y-105206800D01*
X146862800Y-103428800D02*
X145897600Y-104394000D01*
X145897600Y-105206800D02*
X145897600Y-105867200D01*
X145643600Y-122174000D02*
X147370800Y-123901200D01*
X147370800Y-123901200D02*
X147370800Y-129286000D01*
X147370800Y-129844800D02*
X144170400Y-133045200D01*
X144170400Y-133045200D02*
X141986000Y-133045200D01*
X141986000Y-133045200D02*
X141071600Y-133959600D01*
X141071600Y-133959600D02*
X137820400Y-133959600D01*
X137820400Y-133959600D02*
X137160000Y-134620000D01*
X147370800Y-129286000D02*
X147370800Y-129844800D01*
X143306800Y-124460000D02*
X142240000Y-124460000D01*
X145491200Y-126644400D02*
X143306800Y-124460000D01*
D19*
X141986000Y-116332000D02*
X142240000Y-116586000D01*
D20*
X142240000Y-116586000D02*
X142240000Y-124460000D01*
X135534400Y-124460000D02*
X137160000Y-124460000D01*
X133654800Y-126339600D02*
X135534400Y-124460000D01*
D19*
X137414000Y-116840000D02*
X137160000Y-117094000D01*
D20*
X137160000Y-117094000D02*
X137160000Y-124460000D01*
D21*
X141986000Y-129235200D02*
X139649200Y-131572000D01*
X139649200Y-131572000D02*
X131114800Y-131572000D01*
X131114800Y-131572000D02*
X129336800Y-133350000D01*
X129336800Y-133350000D02*
X128270000Y-133350000D01*
X132791200Y-112522000D02*
X131927600Y-112522000D01*
X131927600Y-112522000D02*
X128879600Y-115570000D01*
X128879600Y-115570000D02*
X128270000Y-115570000D01*
X135890000Y-112014000D02*
X135382000Y-112522000D01*
X135382000Y-112522000D02*
X132791200Y-112522000D01*
X143560800Y-112014000D02*
X148082000Y-112014000D01*
X148082000Y-112014000D02*
X149098000Y-113030000D01*
X149098000Y-113030000D02*
X151130000Y-113030000D01*
X150012400Y-120650000D02*
X151130000Y-120650000D01*
X143713200Y-114350800D02*
X150012400Y-120650000D01*
D22*
X139242800Y-93167200D02*
X140411200Y-93167200D01*
X138988800Y-93421200D02*
X139242800Y-93167200D01*
D23*
X140868400Y-113842800D02*
X149199600Y-122174000D01*
X140868400Y-108966000D02*
X140868400Y-113842800D01*
X149199600Y-122174000D02*
X149199600Y-122580400D01*
X149199600Y-122580400D02*
X149199600Y-122174000D01*
D19*
X148590000Y-95859600D02*
X147370800Y-97078800D01*
X147370800Y-97078800D02*
X144119600Y-97078800D01*
X147878800Y-104292400D02*
X147878800Y-100177600D01*
X147878800Y-100177600D02*
X148590000Y-99466400D01*
D23*
X147116800Y-97078800D02*
X144119600Y-97078800D01*
X146050000Y-140970000D02*
X146050000Y-139852400D01*
X149199600Y-136702800D02*
X149199600Y-122174000D01*
X146050000Y-139852400D02*
X149199600Y-136702800D01*
X140868400Y-108610400D02*
X142392400Y-107086400D01*
X142392400Y-107086400D02*
X146812000Y-107086400D01*
X146812000Y-107086400D02*
X147878800Y-106019600D01*
X147878800Y-106019600D02*
X147878800Y-104292400D01*
X140868400Y-108966000D02*
X140868400Y-108610400D01*
D21*
X145186400Y-113487200D02*
X143357600Y-113487200D01*
X143357600Y-113487200D02*
X142595600Y-114249200D01*
X151130000Y-118110000D02*
X149809200Y-118110000D01*
X149809200Y-118110000D02*
X145186400Y-113487200D01*
X139039600Y-130810000D02*
X128270000Y-130810000D01*
X141935200Y-127914400D02*
X139039600Y-130810000D01*
X143002000Y-112776000D02*
X142595600Y-112776000D01*
X142595600Y-112776000D02*
X141782800Y-113588800D01*
X143243302Y-112776000D02*
X143002000Y-112776000D01*
X143002000Y-112776000D02*
X142748000Y-112776000D01*
X147320000Y-112776000D02*
X143243302Y-112776000D01*
X150114000Y-115570000D02*
X147320000Y-112776000D01*
X138176000Y-113995200D02*
X138176000Y-115874800D01*
X138074400Y-113893600D02*
X138176000Y-113995200D01*
X151130000Y-115570000D02*
X150114000Y-115570000D01*
D24*
G36*
X138016187Y-135655795D02*
X137895177Y-135947218D01*
X137894824Y-136351010D01*
X138049023Y-136724200D01*
X138334298Y-137009973D01*
X138707218Y-137164823D01*
X139111010Y-137165176D01*
X139484200Y-137010977D01*
X139769973Y-136725702D01*
X139819885Y-136605500D01*
X141080000Y-136605500D01*
X141395906Y-136542663D01*
X141663717Y-136363717D01*
X142074078Y-135953356D01*
X142366351Y-135953611D01*
X142345227Y-135974698D01*
X142218519Y-136279845D01*
X139706382Y-138791982D01*
X139513671Y-139080394D01*
X139446000Y-139420600D01*
X139446000Y-139621323D01*
X139249591Y-139752559D01*
X139068184Y-140024054D01*
X138674752Y-139613191D01*
X138159740Y-139378964D01*
X137922000Y-139499622D01*
X137922000Y-140843000D01*
X137942000Y-140843000D01*
X137942000Y-141097000D01*
X137922000Y-141097000D01*
X137922000Y-142440378D01*
X138159740Y-142561036D01*
X138674752Y-142326809D01*
X139068184Y-141915946D01*
X139249591Y-142187441D01*
X139747581Y-142520187D01*
X140335000Y-142637032D01*
X140922419Y-142520187D01*
X141420409Y-142187441D01*
X141605000Y-141911181D01*
X141789591Y-142187441D01*
X141986000Y-142318677D01*
X141986000Y-142570200D01*
X142053671Y-142910406D01*
X142195467Y-143122618D01*
X142246382Y-143198818D01*
X143236982Y-144189418D01*
X143525394Y-144382129D01*
X143865600Y-144449800D01*
X147523200Y-144449800D01*
X147863406Y-144382129D01*
X148151818Y-144189418D01*
X148624949Y-143716287D01*
X148360372Y-144353459D01*
X148359630Y-145202815D01*
X148683980Y-145987800D01*
X148696159Y-146000000D01*
X148590000Y-146000000D01*
X148327862Y-146052143D01*
X148105632Y-146200632D01*
X147671264Y-146635000D01*
X131728736Y-146635000D01*
X131294368Y-146200632D01*
X131072138Y-146052143D01*
X130810000Y-146000000D01*
X130704852Y-146000000D01*
X130713909Y-145990959D01*
X131039628Y-145206541D01*
X131040370Y-144357185D01*
X130716020Y-143572200D01*
X130115959Y-142971091D01*
X129331541Y-142645372D01*
X128482185Y-142644630D01*
X127697200Y-142968980D01*
X127685000Y-142981159D01*
X127685000Y-139874899D01*
X128137968Y-139965000D01*
X128402032Y-139965000D01*
X128989451Y-139848155D01*
X129054966Y-139804380D01*
X128756845Y-140250549D01*
X128640000Y-140837968D01*
X128640000Y-141102032D01*
X128756845Y-141689451D01*
X129089591Y-142187441D01*
X129587581Y-142520187D01*
X130175000Y-142637032D01*
X130762419Y-142520187D01*
X131260409Y-142187441D01*
X131445000Y-141911181D01*
X131629591Y-142187441D01*
X132127581Y-142520187D01*
X132715000Y-142637032D01*
X133302419Y-142520187D01*
X133800409Y-142187441D01*
X133985000Y-141911181D01*
X134169591Y-142187441D01*
X134667581Y-142520187D01*
X135255000Y-142637032D01*
X135842419Y-142520187D01*
X136340409Y-142187441D01*
X136521816Y-141915946D01*
X136915248Y-142326809D01*
X137430260Y-142561036D01*
X137668000Y-142440378D01*
X137668000Y-141097000D01*
X137648000Y-141097000D01*
X137648000Y-140843000D01*
X137668000Y-140843000D01*
X137668000Y-139499622D01*
X137430260Y-139378964D01*
X136915248Y-139613191D01*
X136521816Y-140024054D01*
X136340409Y-139752559D01*
X135842419Y-139419813D01*
X135255000Y-139302968D01*
X134667581Y-139419813D01*
X134169591Y-139752559D01*
X133985000Y-140028819D01*
X133800409Y-139752559D01*
X133302419Y-139419813D01*
X132715000Y-139302968D01*
X132225158Y-139400404D01*
X132289973Y-139335702D01*
X132444823Y-138962782D01*
X132445176Y-138558990D01*
X132425500Y-138511370D01*
X132425500Y-138492479D01*
X132639218Y-138581223D01*
X133043010Y-138581576D01*
X133348379Y-138455400D01*
X136245600Y-138455400D01*
X136585806Y-138387729D01*
X136874218Y-138195018D01*
X137024565Y-138044671D01*
X137327800Y-137919377D01*
X137613573Y-137634102D01*
X137768423Y-137261182D01*
X137768776Y-136857390D01*
X137614577Y-136484200D01*
X137329302Y-136198427D01*
X137180725Y-136136733D01*
X137194823Y-136102782D01*
X137194953Y-135953569D01*
X137497199Y-135937148D01*
X137852929Y-135789800D01*
X137914582Y-135554190D01*
X138016187Y-135655795D01*
X138016187Y-135655795D01*
G37*
X138016187Y-135655795D02*
X137895177Y-135947218D01*
X137894824Y-136351010D01*
X138049023Y-136724200D01*
X138334298Y-137009973D01*
X138707218Y-137164823D01*
X139111010Y-137165176D01*
X139484200Y-137010977D01*
X139769973Y-136725702D01*
X139819885Y-136605500D01*
X141080000Y-136605500D01*
X141395906Y-136542663D01*
X141663717Y-136363717D01*
X142074078Y-135953356D01*
X142366351Y-135953611D01*
X142345227Y-135974698D01*
X142218519Y-136279845D01*
X139706382Y-138791982D01*
X139513671Y-139080394D01*
X139446000Y-139420600D01*
X139446000Y-139621323D01*
X139249591Y-139752559D01*
X139068184Y-140024054D01*
X138674752Y-139613191D01*
X138159740Y-139378964D01*
X137922000Y-139499622D01*
X137922000Y-140843000D01*
X137942000Y-140843000D01*
X137942000Y-141097000D01*
X137922000Y-141097000D01*
X137922000Y-142440378D01*
X138159740Y-142561036D01*
X138674752Y-142326809D01*
X139068184Y-141915946D01*
X139249591Y-142187441D01*
X139747581Y-142520187D01*
X140335000Y-142637032D01*
X140922419Y-142520187D01*
X141420409Y-142187441D01*
X141605000Y-141911181D01*
X141789591Y-142187441D01*
X141986000Y-142318677D01*
X141986000Y-142570200D01*
X142053671Y-142910406D01*
X142195467Y-143122618D01*
X142246382Y-143198818D01*
X143236982Y-144189418D01*
X143525394Y-144382129D01*
X143865600Y-144449800D01*
X147523200Y-144449800D01*
X147863406Y-144382129D01*
X148151818Y-144189418D01*
X148624949Y-143716287D01*
X148360372Y-144353459D01*
X148359630Y-145202815D01*
X148683980Y-145987800D01*
X148696159Y-146000000D01*
X148590000Y-146000000D01*
X148327862Y-146052143D01*
X148105632Y-146200632D01*
X147671264Y-146635000D01*
X131728736Y-146635000D01*
X131294368Y-146200632D01*
X131072138Y-146052143D01*
X130810000Y-146000000D01*
X130704852Y-146000000D01*
X130713909Y-145990959D01*
X131039628Y-145206541D01*
X131040370Y-144357185D01*
X130716020Y-143572200D01*
X130115959Y-142971091D01*
X129331541Y-142645372D01*
X128482185Y-142644630D01*
X127697200Y-142968980D01*
X127685000Y-142981159D01*
X127685000Y-139874899D01*
X128137968Y-139965000D01*
X128402032Y-139965000D01*
X128989451Y-139848155D01*
X129054966Y-139804380D01*
X128756845Y-140250549D01*
X128640000Y-140837968D01*
X128640000Y-141102032D01*
X128756845Y-141689451D01*
X129089591Y-142187441D01*
X129587581Y-142520187D01*
X130175000Y-142637032D01*
X130762419Y-142520187D01*
X131260409Y-142187441D01*
X131445000Y-141911181D01*
X131629591Y-142187441D01*
X132127581Y-142520187D01*
X132715000Y-142637032D01*
X133302419Y-142520187D01*
X133800409Y-142187441D01*
X133985000Y-141911181D01*
X134169591Y-142187441D01*
X134667581Y-142520187D01*
X135255000Y-142637032D01*
X135842419Y-142520187D01*
X136340409Y-142187441D01*
X136521816Y-141915946D01*
X136915248Y-142326809D01*
X137430260Y-142561036D01*
X137668000Y-142440378D01*
X137668000Y-141097000D01*
X137648000Y-141097000D01*
X137648000Y-140843000D01*
X137668000Y-140843000D01*
X137668000Y-139499622D01*
X137430260Y-139378964D01*
X136915248Y-139613191D01*
X136521816Y-140024054D01*
X136340409Y-139752559D01*
X135842419Y-139419813D01*
X135255000Y-139302968D01*
X134667581Y-139419813D01*
X134169591Y-139752559D01*
X133985000Y-140028819D01*
X133800409Y-139752559D01*
X133302419Y-139419813D01*
X132715000Y-139302968D01*
X132225158Y-139400404D01*
X132289973Y-139335702D01*
X132444823Y-138962782D01*
X132445176Y-138558990D01*
X132425500Y-138511370D01*
X132425500Y-138492479D01*
X132639218Y-138581223D01*
X133043010Y-138581576D01*
X133348379Y-138455400D01*
X136245600Y-138455400D01*
X136585806Y-138387729D01*
X136874218Y-138195018D01*
X137024565Y-138044671D01*
X137327800Y-137919377D01*
X137613573Y-137634102D01*
X137768423Y-137261182D01*
X137768776Y-136857390D01*
X137614577Y-136484200D01*
X137329302Y-136198427D01*
X137180725Y-136136733D01*
X137194823Y-136102782D01*
X137194953Y-135953569D01*
X137497199Y-135937148D01*
X137852929Y-135789800D01*
X137914582Y-135554190D01*
X138016187Y-135655795D01*
G36*
X148336000Y-122531714D02*
X148336000Y-136345086D01*
X145439343Y-139241743D01*
X145252138Y-139521915D01*
X145243303Y-139566330D01*
X144964591Y-139752559D01*
X144631845Y-140250549D01*
X144515000Y-140837968D01*
X144515000Y-141102032D01*
X144631845Y-141689451D01*
X144964591Y-142187441D01*
X145462581Y-142520187D01*
X146050000Y-142637032D01*
X146637419Y-142520187D01*
X147135409Y-142187441D01*
X147320000Y-141911181D01*
X147504591Y-142187441D01*
X147585357Y-142241407D01*
X147154964Y-142671800D01*
X144233836Y-142671800D01*
X143833964Y-142271928D01*
X143960409Y-142187441D01*
X144293155Y-141689451D01*
X144410000Y-141102032D01*
X144410000Y-140837968D01*
X144293155Y-140250549D01*
X144079398Y-139930638D01*
X145510218Y-138499818D01*
X145556869Y-138430000D01*
X145702929Y-138211406D01*
X145770600Y-137871200D01*
X145770600Y-135432800D01*
X145702929Y-135092594D01*
X145510218Y-134804182D01*
X144697418Y-133991382D01*
X144409006Y-133798671D01*
X144068800Y-133731000D01*
X143236760Y-133731000D01*
X142996353Y-133490173D01*
X142506413Y-133286732D01*
X141975914Y-133286269D01*
X141840352Y-133342282D01*
X144055133Y-131127500D01*
X144423885Y-131127500D01*
X144458298Y-131161973D01*
X144831218Y-131316823D01*
X145235010Y-131317176D01*
X145608200Y-131162977D01*
X145893973Y-130877702D01*
X146048823Y-130504782D01*
X146049176Y-130100990D01*
X145894977Y-129727800D01*
X145859500Y-129692261D01*
X145859500Y-128930400D01*
X145826660Y-128765300D01*
X145796663Y-128614494D01*
X145617717Y-128346683D01*
X143484117Y-126213083D01*
X143216306Y-126034137D01*
X142900400Y-125971300D01*
X141935200Y-125971300D01*
X141619294Y-126034137D01*
X141512024Y-126105813D01*
X141351483Y-126213083D01*
X141351481Y-126213086D01*
X140728700Y-126835867D01*
X140728700Y-124864830D01*
X140885169Y-125243515D01*
X141274436Y-125633461D01*
X141783298Y-125844759D01*
X142334285Y-125845240D01*
X142843515Y-125634831D01*
X142989181Y-125489419D01*
X144568161Y-127068399D01*
X144630223Y-127218600D01*
X144915498Y-127504373D01*
X145288418Y-127659223D01*
X145692210Y-127659576D01*
X146065400Y-127505377D01*
X146351173Y-127220102D01*
X146506023Y-126847182D01*
X146506376Y-126443390D01*
X146352177Y-126070200D01*
X146066902Y-125784427D01*
X145915324Y-125721486D01*
X143980319Y-123786481D01*
X143671306Y-123580005D01*
X143306800Y-123507500D01*
X143192500Y-123507500D01*
X143192500Y-117388214D01*
X148336000Y-122531714D01*
X148336000Y-122531714D01*
G37*
X148336000Y-122531714D02*
X148336000Y-136345086D01*
X145439343Y-139241743D01*
X145252138Y-139521915D01*
X145243303Y-139566330D01*
X144964591Y-139752559D01*
X144631845Y-140250549D01*
X144515000Y-140837968D01*
X144515000Y-141102032D01*
X144631845Y-141689451D01*
X144964591Y-142187441D01*
X145462581Y-142520187D01*
X146050000Y-142637032D01*
X146637419Y-142520187D01*
X147135409Y-142187441D01*
X147320000Y-141911181D01*
X147504591Y-142187441D01*
X147585357Y-142241407D01*
X147154964Y-142671800D01*
X144233836Y-142671800D01*
X143833964Y-142271928D01*
X143960409Y-142187441D01*
X144293155Y-141689451D01*
X144410000Y-141102032D01*
X144410000Y-140837968D01*
X144293155Y-140250549D01*
X144079398Y-139930638D01*
X145510218Y-138499818D01*
X145556869Y-138430000D01*
X145702929Y-138211406D01*
X145770600Y-137871200D01*
X145770600Y-135432800D01*
X145702929Y-135092594D01*
X145510218Y-134804182D01*
X144697418Y-133991382D01*
X144409006Y-133798671D01*
X144068800Y-133731000D01*
X143236760Y-133731000D01*
X142996353Y-133490173D01*
X142506413Y-133286732D01*
X141975914Y-133286269D01*
X141840352Y-133342282D01*
X144055133Y-131127500D01*
X144423885Y-131127500D01*
X144458298Y-131161973D01*
X144831218Y-131316823D01*
X145235010Y-131317176D01*
X145608200Y-131162977D01*
X145893973Y-130877702D01*
X146048823Y-130504782D01*
X146049176Y-130100990D01*
X145894977Y-129727800D01*
X145859500Y-129692261D01*
X145859500Y-128930400D01*
X145826660Y-128765300D01*
X145796663Y-128614494D01*
X145617717Y-128346683D01*
X143484117Y-126213083D01*
X143216306Y-126034137D01*
X142900400Y-125971300D01*
X141935200Y-125971300D01*
X141619294Y-126034137D01*
X141512024Y-126105813D01*
X141351483Y-126213083D01*
X141351481Y-126213086D01*
X140728700Y-126835867D01*
X140728700Y-124864830D01*
X140885169Y-125243515D01*
X141274436Y-125633461D01*
X141783298Y-125844759D01*
X142334285Y-125845240D01*
X142843515Y-125634831D01*
X142989181Y-125489419D01*
X144568161Y-127068399D01*
X144630223Y-127218600D01*
X144915498Y-127504373D01*
X145288418Y-127659223D01*
X145692210Y-127659576D01*
X146065400Y-127505377D01*
X146351173Y-127220102D01*
X146506023Y-126847182D01*
X146506376Y-126443390D01*
X146352177Y-126070200D01*
X146066902Y-125784427D01*
X145915324Y-125721486D01*
X143980319Y-123786481D01*
X143671306Y-123580005D01*
X143306800Y-123507500D01*
X143192500Y-123507500D01*
X143192500Y-117388214D01*
X148336000Y-122531714D01*
G36*
X136110555Y-133750163D02*
X136225810Y-133865418D01*
X135990200Y-133927071D01*
X135814073Y-134427480D01*
X135841995Y-134941429D01*
X135605800Y-135039023D01*
X135320027Y-135324298D01*
X135165177Y-135697218D01*
X135165133Y-135747433D01*
X134998066Y-135914500D01*
X132257733Y-135914500D01*
X134453933Y-133718300D01*
X136142418Y-133718300D01*
X136110555Y-133750163D01*
X136110555Y-133750163D01*
G37*
X136110555Y-133750163D02*
X136225810Y-133865418D01*
X135990200Y-133927071D01*
X135814073Y-134427480D01*
X135841995Y-134941429D01*
X135605800Y-135039023D01*
X135320027Y-135324298D01*
X135165177Y-135697218D01*
X135165133Y-135747433D01*
X134998066Y-135914500D01*
X132257733Y-135914500D01*
X134453933Y-133718300D01*
X136142418Y-133718300D01*
X136110555Y-133750163D01*
G36*
X137353748Y-134605858D02*
X137339605Y-134620000D01*
X137353748Y-134634143D01*
X137174143Y-134813748D01*
X137160000Y-134799605D01*
X137145858Y-134813748D01*
X136966253Y-134634143D01*
X136980395Y-134620000D01*
X136966253Y-134605858D01*
X137145858Y-134426253D01*
X137160000Y-134440395D01*
X137174143Y-134426253D01*
X137353748Y-134605858D01*
X137353748Y-134605858D01*
G37*
X137353748Y-134605858D02*
X137339605Y-134620000D01*
X137353748Y-134634143D01*
X137174143Y-134813748D01*
X137160000Y-134799605D01*
X137145858Y-134813748D01*
X136966253Y-134634143D01*
X136980395Y-134620000D01*
X136966253Y-134605858D01*
X137145858Y-134426253D01*
X137160000Y-134440395D01*
X137174143Y-134426253D01*
X137353748Y-134605858D01*
G36*
X135111605Y-114189494D02*
X135039100Y-114554000D01*
X135039100Y-116750262D01*
X132066881Y-119722481D01*
X131860405Y-120031494D01*
X131787900Y-120396000D01*
X131851400Y-120715235D01*
X131851400Y-128625600D01*
X131919071Y-128965806D01*
X132054841Y-129169000D01*
X132111782Y-129254218D01*
X132770129Y-129912565D01*
X132799852Y-129984500D01*
X132095005Y-129984500D01*
X132095176Y-129788990D01*
X131940977Y-129415800D01*
X131775500Y-129250034D01*
X131775500Y-117050000D01*
X131746042Y-116901905D01*
X131712663Y-116734094D01*
X131640987Y-116626824D01*
X131533717Y-116466283D01*
X131533714Y-116466281D01*
X131229100Y-116161666D01*
X131229100Y-115302334D01*
X132421933Y-114109500D01*
X135165055Y-114109500D01*
X135111605Y-114189494D01*
X135111605Y-114189494D01*
G37*
X135111605Y-114189494D02*
X135039100Y-114554000D01*
X135039100Y-116750262D01*
X132066881Y-119722481D01*
X131860405Y-120031494D01*
X131787900Y-120396000D01*
X131851400Y-120715235D01*
X131851400Y-128625600D01*
X131919071Y-128965806D01*
X132054841Y-129169000D01*
X132111782Y-129254218D01*
X132770129Y-129912565D01*
X132799852Y-129984500D01*
X132095005Y-129984500D01*
X132095176Y-129788990D01*
X131940977Y-129415800D01*
X131775500Y-129250034D01*
X131775500Y-117050000D01*
X131746042Y-116901905D01*
X131712663Y-116734094D01*
X131640987Y-116626824D01*
X131533717Y-116466283D01*
X131533714Y-116466281D01*
X131229100Y-116161666D01*
X131229100Y-115302334D01*
X132421933Y-114109500D01*
X135165055Y-114109500D01*
X135111605Y-114189494D01*
G36*
X148145500Y-109003262D02*
X148044319Y-108902081D01*
X147735306Y-108695605D01*
X147370800Y-108623100D01*
X143253272Y-108623100D01*
X143103182Y-108560777D01*
X142699390Y-108560424D01*
X142326200Y-108714623D01*
X142040427Y-108999898D01*
X141885577Y-109372818D01*
X141885224Y-109776610D01*
X142039423Y-110149800D01*
X142324698Y-110435573D01*
X142697618Y-110590423D01*
X143101410Y-110590776D01*
X143253097Y-110528100D01*
X146976262Y-110528100D01*
X147636662Y-111188500D01*
X144170915Y-111188500D01*
X144136502Y-111154027D01*
X143763582Y-110999177D01*
X143359790Y-110998824D01*
X142986600Y-111153023D01*
X142700827Y-111438298D01*
X142545977Y-111811218D01*
X142545847Y-111960396D01*
X142279695Y-112013337D01*
X142011883Y-112192283D01*
X142011881Y-112192286D01*
X141732000Y-112472167D01*
X141732000Y-108968114D01*
X142750115Y-107950000D01*
X146812000Y-107950000D01*
X147142485Y-107884262D01*
X147422657Y-107697057D01*
X148145500Y-106974214D01*
X148145500Y-109003262D01*
X148145500Y-109003262D01*
G37*
X148145500Y-109003262D02*
X148044319Y-108902081D01*
X147735306Y-108695605D01*
X147370800Y-108623100D01*
X143253272Y-108623100D01*
X143103182Y-108560777D01*
X142699390Y-108560424D01*
X142326200Y-108714623D01*
X142040427Y-108999898D01*
X141885577Y-109372818D01*
X141885224Y-109776610D01*
X142039423Y-110149800D01*
X142324698Y-110435573D01*
X142697618Y-110590423D01*
X143101410Y-110590776D01*
X143253097Y-110528100D01*
X146976262Y-110528100D01*
X147636662Y-111188500D01*
X144170915Y-111188500D01*
X144136502Y-111154027D01*
X143763582Y-110999177D01*
X143359790Y-110998824D01*
X142986600Y-111153023D01*
X142700827Y-111438298D01*
X142545977Y-111811218D01*
X142545847Y-111960396D01*
X142279695Y-112013337D01*
X142011883Y-112192283D01*
X142011881Y-112192286D01*
X141732000Y-112472167D01*
X141732000Y-108968114D01*
X142750115Y-107950000D01*
X146812000Y-107950000D01*
X147142485Y-107884262D01*
X147422657Y-107697057D01*
X148145500Y-106974214D01*
X148145500Y-109003262D01*
G36*
X146989800Y-104292400D02*
X147015200Y-104420095D01*
X147015200Y-105661886D01*
X146454286Y-106222800D01*
X142392400Y-106222800D01*
X142061915Y-106288538D01*
X142061913Y-106288539D01*
X142061914Y-106288539D01*
X141781742Y-106475743D01*
X141096998Y-107160487D01*
X141096998Y-106946698D01*
X141080666Y-106864591D01*
X141034161Y-106630792D01*
X140855215Y-106362981D01*
X140728700Y-106236466D01*
X140728700Y-106018523D01*
X141018610Y-106018776D01*
X141391800Y-105864577D01*
X141478228Y-105778300D01*
X144221200Y-105778300D01*
X144537106Y-105715463D01*
X144804917Y-105536517D01*
X146989800Y-103351634D01*
X146989800Y-104292400D01*
X146989800Y-104292400D01*
G37*
X146989800Y-104292400D02*
X147015200Y-104420095D01*
X147015200Y-105661886D01*
X146454286Y-106222800D01*
X142392400Y-106222800D01*
X142061915Y-106288538D01*
X142061913Y-106288539D01*
X142061914Y-106288539D01*
X141781742Y-106475743D01*
X141096998Y-107160487D01*
X141096998Y-106946698D01*
X141080666Y-106864591D01*
X141034161Y-106630792D01*
X140855215Y-106362981D01*
X140728700Y-106236466D01*
X140728700Y-106018523D01*
X141018610Y-106018776D01*
X141391800Y-105864577D01*
X141478228Y-105778300D01*
X144221200Y-105778300D01*
X144537106Y-105715463D01*
X144804917Y-105536517D01*
X146989800Y-103351634D01*
X146989800Y-104292400D01*
G36*
X132230632Y-85574368D02*
X132452862Y-85722857D01*
X132715000Y-85775000D01*
X134475487Y-85775000D01*
X134472069Y-85780115D01*
X134340000Y-86444071D01*
X134340000Y-86817929D01*
X134472069Y-87481885D01*
X134848170Y-88044759D01*
X135411044Y-88420860D01*
X136017000Y-88541392D01*
X136017000Y-88699029D01*
X135890241Y-89004298D01*
X135889760Y-89555285D01*
X136017000Y-89863230D01*
X136017000Y-89916000D01*
X136027006Y-89965410D01*
X136055447Y-90007035D01*
X136084014Y-90025418D01*
X136100169Y-90064515D01*
X136489436Y-90454461D01*
X136998298Y-90665759D01*
X137549285Y-90666240D01*
X138058515Y-90455831D01*
X138448461Y-90066564D01*
X138451400Y-90059485D01*
X140963057Y-90077425D01*
X141339436Y-90454461D01*
X141848298Y-90665759D01*
X142399285Y-90666240D01*
X142908515Y-90455831D01*
X143275088Y-90089896D01*
X143304573Y-90084144D01*
X143346400Y-90056001D01*
X143373982Y-90013803D01*
X143383000Y-89966800D01*
X143383000Y-89862972D01*
X143509759Y-89557702D01*
X143510240Y-89006715D01*
X143383000Y-88698769D01*
X143383000Y-88541392D01*
X143988956Y-88420860D01*
X144551830Y-88044759D01*
X144927931Y-87481885D01*
X145060000Y-86817929D01*
X145060000Y-86444071D01*
X144927931Y-85780115D01*
X144924513Y-85775000D01*
X146685000Y-85775000D01*
X146947138Y-85722857D01*
X147169368Y-85574368D01*
X147603736Y-85140000D01*
X149393639Y-85140000D01*
X149287200Y-85183980D01*
X148686091Y-85784041D01*
X148360372Y-86568459D01*
X148359630Y-87417815D01*
X148683980Y-88202800D01*
X149284041Y-88803909D01*
X149930741Y-89072442D01*
X149912559Y-89084591D01*
X149823752Y-89217500D01*
X148793200Y-89217500D01*
X148428694Y-89290005D01*
X148119681Y-89496481D01*
X145909462Y-91706700D01*
X144018000Y-91706700D01*
X143653494Y-91779205D01*
X143344480Y-91985681D01*
X143166261Y-92163900D01*
X142138400Y-92163900D01*
X141773894Y-92236405D01*
X141464881Y-92442881D01*
X141307482Y-92678445D01*
X141272177Y-92593000D01*
X140986902Y-92307227D01*
X140613982Y-92152377D01*
X140210190Y-92152024D01*
X139837000Y-92306223D01*
X139763295Y-92379800D01*
X139242800Y-92379800D01*
X139109548Y-92406305D01*
X138787790Y-92406024D01*
X138414600Y-92560223D01*
X138128827Y-92845498D01*
X137973977Y-93218418D01*
X137973624Y-93622210D01*
X138000767Y-93687900D01*
X136801672Y-93687900D01*
X136651582Y-93625577D01*
X136247790Y-93625224D01*
X135874600Y-93779423D01*
X135588827Y-94064698D01*
X135433977Y-94437618D01*
X135433624Y-94841410D01*
X135587823Y-95214600D01*
X135873098Y-95500373D01*
X136246018Y-95655223D01*
X136649810Y-95655576D01*
X136801497Y-95592900D01*
X140614400Y-95592900D01*
X140978906Y-95520395D01*
X141287919Y-95313919D01*
X141468751Y-95043285D01*
X142443136Y-94068900D01*
X143207928Y-94068900D01*
X143358018Y-94131223D01*
X143761810Y-94131576D01*
X144135000Y-93977377D01*
X144420773Y-93692102D01*
X144454159Y-93611700D01*
X146304000Y-93611700D01*
X146668506Y-93539195D01*
X146977519Y-93332719D01*
X149187738Y-91122500D01*
X149823752Y-91122500D01*
X149912559Y-91255409D01*
X150184054Y-91436816D01*
X149773191Y-91830248D01*
X149538964Y-92345260D01*
X149659622Y-92583000D01*
X151003000Y-92583000D01*
X151003000Y-92563000D01*
X151257000Y-92563000D01*
X151257000Y-92583000D01*
X151277000Y-92583000D01*
X151277000Y-92837000D01*
X151257000Y-92837000D01*
X151257000Y-92857000D01*
X151003000Y-92857000D01*
X151003000Y-92837000D01*
X149659622Y-92837000D01*
X149538964Y-93074740D01*
X149773191Y-93589752D01*
X150184054Y-93983184D01*
X149912559Y-94164591D01*
X149746636Y-94412913D01*
X149603377Y-94066200D01*
X149318102Y-93780427D01*
X148945182Y-93625577D01*
X148541390Y-93625224D01*
X148236021Y-93751400D01*
X145440400Y-93751400D01*
X145100194Y-93819071D01*
X144811782Y-94011782D01*
X144661435Y-94162129D01*
X144358200Y-94287423D01*
X144072427Y-94572698D01*
X143917577Y-94945618D01*
X143917224Y-95349410D01*
X144071423Y-95722600D01*
X144356698Y-96008373D01*
X144729618Y-96163223D01*
X145133410Y-96163576D01*
X145506600Y-96009377D01*
X145792373Y-95724102D01*
X145873220Y-95529400D01*
X147628086Y-95529400D01*
X147603319Y-95589045D01*
X147002564Y-96189800D01*
X144625397Y-96189800D01*
X144322382Y-96063977D01*
X143918590Y-96063624D01*
X143545400Y-96217823D01*
X143259627Y-96503098D01*
X143104777Y-96876018D01*
X143104424Y-97279810D01*
X143258623Y-97653000D01*
X143452202Y-97846917D01*
X143357600Y-97828100D01*
X134537933Y-97828100D01*
X132346700Y-95636866D01*
X132346700Y-91592400D01*
X132283863Y-91276495D01*
X132104917Y-91008683D01*
X132104914Y-91008681D01*
X130682517Y-89586283D01*
X130414706Y-89407337D01*
X130098800Y-89344500D01*
X129661106Y-89344500D01*
X129487441Y-89084591D01*
X129468782Y-89072123D01*
X130112800Y-88806020D01*
X130713909Y-88205959D01*
X131039628Y-87421541D01*
X131040370Y-86572185D01*
X130716020Y-85787200D01*
X130115959Y-85186091D01*
X130004960Y-85140000D01*
X131796264Y-85140000D01*
X132230632Y-85574368D01*
X132230632Y-85574368D01*
G37*
X132230632Y-85574368D02*
X132452862Y-85722857D01*
X132715000Y-85775000D01*
X134475487Y-85775000D01*
X134472069Y-85780115D01*
X134340000Y-86444071D01*
X134340000Y-86817929D01*
X134472069Y-87481885D01*
X134848170Y-88044759D01*
X135411044Y-88420860D01*
X136017000Y-88541392D01*
X136017000Y-88699029D01*
X135890241Y-89004298D01*
X135889760Y-89555285D01*
X136017000Y-89863230D01*
X136017000Y-89916000D01*
X136027006Y-89965410D01*
X136055447Y-90007035D01*
X136084014Y-90025418D01*
X136100169Y-90064515D01*
X136489436Y-90454461D01*
X136998298Y-90665759D01*
X137549285Y-90666240D01*
X138058515Y-90455831D01*
X138448461Y-90066564D01*
X138451400Y-90059485D01*
X140963057Y-90077425D01*
X141339436Y-90454461D01*
X141848298Y-90665759D01*
X142399285Y-90666240D01*
X142908515Y-90455831D01*
X143275088Y-90089896D01*
X143304573Y-90084144D01*
X143346400Y-90056001D01*
X143373982Y-90013803D01*
X143383000Y-89966800D01*
X143383000Y-89862972D01*
X143509759Y-89557702D01*
X143510240Y-89006715D01*
X143383000Y-88698769D01*
X143383000Y-88541392D01*
X143988956Y-88420860D01*
X144551830Y-88044759D01*
X144927931Y-87481885D01*
X145060000Y-86817929D01*
X145060000Y-86444071D01*
X144927931Y-85780115D01*
X144924513Y-85775000D01*
X146685000Y-85775000D01*
X146947138Y-85722857D01*
X147169368Y-85574368D01*
X147603736Y-85140000D01*
X149393639Y-85140000D01*
X149287200Y-85183980D01*
X148686091Y-85784041D01*
X148360372Y-86568459D01*
X148359630Y-87417815D01*
X148683980Y-88202800D01*
X149284041Y-88803909D01*
X149930741Y-89072442D01*
X149912559Y-89084591D01*
X149823752Y-89217500D01*
X148793200Y-89217500D01*
X148428694Y-89290005D01*
X148119681Y-89496481D01*
X145909462Y-91706700D01*
X144018000Y-91706700D01*
X143653494Y-91779205D01*
X143344480Y-91985681D01*
X143166261Y-92163900D01*
X142138400Y-92163900D01*
X141773894Y-92236405D01*
X141464881Y-92442881D01*
X141307482Y-92678445D01*
X141272177Y-92593000D01*
X140986902Y-92307227D01*
X140613982Y-92152377D01*
X140210190Y-92152024D01*
X139837000Y-92306223D01*
X139763295Y-92379800D01*
X139242800Y-92379800D01*
X139109548Y-92406305D01*
X138787790Y-92406024D01*
X138414600Y-92560223D01*
X138128827Y-92845498D01*
X137973977Y-93218418D01*
X137973624Y-93622210D01*
X138000767Y-93687900D01*
X136801672Y-93687900D01*
X136651582Y-93625577D01*
X136247790Y-93625224D01*
X135874600Y-93779423D01*
X135588827Y-94064698D01*
X135433977Y-94437618D01*
X135433624Y-94841410D01*
X135587823Y-95214600D01*
X135873098Y-95500373D01*
X136246018Y-95655223D01*
X136649810Y-95655576D01*
X136801497Y-95592900D01*
X140614400Y-95592900D01*
X140978906Y-95520395D01*
X141287919Y-95313919D01*
X141468751Y-95043285D01*
X142443136Y-94068900D01*
X143207928Y-94068900D01*
X143358018Y-94131223D01*
X143761810Y-94131576D01*
X144135000Y-93977377D01*
X144420773Y-93692102D01*
X144454159Y-93611700D01*
X146304000Y-93611700D01*
X146668506Y-93539195D01*
X146977519Y-93332719D01*
X149187738Y-91122500D01*
X149823752Y-91122500D01*
X149912559Y-91255409D01*
X150184054Y-91436816D01*
X149773191Y-91830248D01*
X149538964Y-92345260D01*
X149659622Y-92583000D01*
X151003000Y-92583000D01*
X151003000Y-92563000D01*
X151257000Y-92563000D01*
X151257000Y-92583000D01*
X151277000Y-92583000D01*
X151277000Y-92837000D01*
X151257000Y-92837000D01*
X151257000Y-92857000D01*
X151003000Y-92857000D01*
X151003000Y-92837000D01*
X149659622Y-92837000D01*
X149538964Y-93074740D01*
X149773191Y-93589752D01*
X150184054Y-93983184D01*
X149912559Y-94164591D01*
X149746636Y-94412913D01*
X149603377Y-94066200D01*
X149318102Y-93780427D01*
X148945182Y-93625577D01*
X148541390Y-93625224D01*
X148236021Y-93751400D01*
X145440400Y-93751400D01*
X145100194Y-93819071D01*
X144811782Y-94011782D01*
X144661435Y-94162129D01*
X144358200Y-94287423D01*
X144072427Y-94572698D01*
X143917577Y-94945618D01*
X143917224Y-95349410D01*
X144071423Y-95722600D01*
X144356698Y-96008373D01*
X144729618Y-96163223D01*
X145133410Y-96163576D01*
X145506600Y-96009377D01*
X145792373Y-95724102D01*
X145873220Y-95529400D01*
X147628086Y-95529400D01*
X147603319Y-95589045D01*
X147002564Y-96189800D01*
X144625397Y-96189800D01*
X144322382Y-96063977D01*
X143918590Y-96063624D01*
X143545400Y-96217823D01*
X143259627Y-96503098D01*
X143104777Y-96876018D01*
X143104424Y-97279810D01*
X143258623Y-97653000D01*
X143452202Y-97846917D01*
X143357600Y-97828100D01*
X134537933Y-97828100D01*
X132346700Y-95636866D01*
X132346700Y-91592400D01*
X132283863Y-91276495D01*
X132104917Y-91008683D01*
X132104914Y-91008681D01*
X130682517Y-89586283D01*
X130414706Y-89407337D01*
X130098800Y-89344500D01*
X129661106Y-89344500D01*
X129487441Y-89084591D01*
X129468782Y-89072123D01*
X130112800Y-88806020D01*
X130713909Y-88205959D01*
X131039628Y-87421541D01*
X131040370Y-86572185D01*
X130716020Y-85787200D01*
X130115959Y-85186091D01*
X130004960Y-85140000D01*
X131796264Y-85140000D01*
X132230632Y-85574368D01*
M02*
