M48
;DRILL file {KiCad 4.0.4-stable} date 08/11/17 11:51:27
;FORMAT={-:-/ absolute / inch / decimal}
FMAT,2
INCH,TZ
T1C0.016
T2C0.028
T3C0.028
T4C0.031
T5C0.032
T6C0.039
%
G90
G05
M72
T1
X5.118Y-4.63
X5.12Y-4.45
X5.122Y-5.108
X5.1606Y-5.1177
X5.174Y-4.57
X5.1744Y-5.463
X5.192Y-4.898
X5.204Y-5.11
X5.224Y-5.352
X5.23Y-5.416
X5.262Y-4.974
X5.266Y-5.104
X5.314Y-3.844
X5.324Y-3.916
X5.35Y-4.41
X5.3614Y-5.3504
X5.372Y-3.726
X5.382Y-4.384
X5.384Y-5.396
X5.386Y-4.002
X5.41Y-3.66
X5.41Y-4.6
X5.422Y-5.014
X5.432Y-4.396
X5.436Y-4.484
X5.44Y-4.562
X5.442Y-5.082
X5.46Y-4.356
X5.4689Y-5.3602
X5.472Y-3.678
X5.508Y-4.114
X5.528Y-3.668
X5.544Y-4.134
X5.582Y-4.472
X5.588Y-5.036
X5.59Y-4.58
X5.59Y-5.088
X5.604Y-3.706
X5.604Y-4.388
X5.614Y-4.498
X5.62Y-5.124
X5.626Y-4.314
X5.638Y-5.376
X5.652Y-3.666
X5.652Y-4.41
X5.658Y-4.502
X5.674Y-3.822
X5.706Y-3.746
X5.71Y-4.02
X5.71Y-5.13
X5.724Y-3.964
X5.728Y-4.986
X5.73Y-4.252
X5.734Y-4.178
X5.734Y-4.81
X5.782Y-4.072
X5.85Y-3.774
X5.85Y-3.916
X5.856Y-3.726
X5.864Y-3.966
X5.88Y-4.404
T2
X5.4045Y-3.515
X5.5955Y-3.515
T4
X5.4Y-4.9
X5.5929Y-4.9
T5
X5.4Y-5.3
X5.6Y-5.3
T6
X5.05Y-3.55
X5.05Y-3.65
X5.05Y-3.75
X5.05Y-3.85
X5.05Y-3.95
X5.05Y-4.05
X5.05Y-4.15
X5.05Y-4.25
X5.05Y-4.35
X5.05Y-4.45
X5.05Y-4.55
X5.05Y-4.65
X5.05Y-4.75
X5.05Y-4.85
X5.05Y-4.95
X5.05Y-5.05
X5.05Y-5.15
X5.05Y-5.25
X5.05Y-5.35
X5.05Y-5.45
X5.125Y-5.55
X5.225Y-5.55
X5.325Y-5.55
X5.425Y-5.55
X5.525Y-5.55
X5.625Y-5.55
X5.75Y-5.55
X5.85Y-5.55
X5.95Y-3.55
X5.95Y-3.65
X5.95Y-3.75
X5.95Y-3.85
X5.95Y-3.95
X5.95Y-4.05
X5.95Y-4.15
X5.95Y-4.25
X5.95Y-4.35
X5.95Y-4.45
X5.95Y-4.55
X5.95Y-4.65
X5.95Y-4.75
X5.95Y-4.85
X5.95Y-4.95
X5.95Y-5.05
X5.95Y-5.15
X5.95Y-5.25
X5.95Y-5.35
X5.95Y-5.45
T3
X5.3573Y-3.4022G85X5.3573Y-3.4191
G05
X5.6427Y-3.4022G85X5.6427Y-3.4191
G05
T0
M30
